<?xml version="1.0" encoding="UTF-8" standalone="no"?>
<!DOCTYPE svg PUBLIC "-//W3C//DTD SVG 1.1//EN"
 "http://www.w3.org/Graphics/SVG/1.1/DTD/svg11.dtd">
<!-- Generated by graphviz version 2.43.0 (0)
 -->
<!-- Title: G Pages: 1 -->
<svg width="561pt" height="247pt"
 viewBox="0.00 0.00 561.08 247.10" xmlns="http://www.w3.org/2000/svg" xmlns:xlink="http://www.w3.org/1999/xlink">
<g id="graph0" class="graph" transform="scale(1 1) rotate(0) translate(4 243.1)">
<title>G</title>
<polygon fill="white" stroke="transparent" points="-4,4 -4,-243.1 557.08,-243.1 557.08,4 -4,4"/>
<!-- invisible_sink1 -->
<g id="node1" class="node">
<title>invisible_sink1</title>
<ellipse fill="black" stroke="black" cx="521.88" cy="-167.1" rx="0" ry="0"/>
</g>
<!-- invisible_sink2 -->
<g id="node2" class="node">
<title>invisible_sink2</title>
<ellipse fill="black" stroke="black" cx="521.88" cy="-41.1" rx="0" ry="0"/>
</g>
<!-- invisible_sink1&#45;&gt;invisible_sink2 -->
<!-- invisible_sink3 -->
<g id="node3" class="node">
<title>invisible_sink3</title>
<ellipse fill="black" stroke="black" cx="521.88" cy="-5.1" rx="0" ry="0"/>
</g>
<!-- invisible_sink2&#45;&gt;invisible_sink3 -->
<!-- Source1 -->
<g id="node4" class="node">
<title>Source1</title>
<ellipse fill="none" stroke="black" cx="42.9" cy="-205.1" rx="42.79" ry="18"/>
<text text-anchor="middle" x="42.9" y="-201.4" font-family="Times,serif" font-size="14.00">Source</text>
</g>
<!-- Shard1 -->
<g id="node5" class="node">
<title>Shard1</title>
<ellipse fill="none" stroke="black" cx="244.24" cy="-204.1" rx="47.39" ry="18"/>
<text text-anchor="middle" x="244.24" y="-200.4" font-family="Times,serif" font-size="14.00">Shard 1</text>
</g>
<!-- Source1&#45;&gt;Shard1 -->
<g id="edge6" class="edge">
<title>Source1&#45;&gt;Shard1</title>
<path fill="none" stroke="black" d="M86.17,-204.89C115.36,-204.74 154.5,-204.55 186.41,-204.39"/>
<polygon fill="black" stroke="black" points="186.51,-207.89 196.49,-204.33 186.48,-200.89 186.51,-207.89"/>
<text text-anchor="middle" x="141.29" y="-207.9" font-family="Times,serif" font-size="14.00">1000 Tgas</text>
</g>
<!-- Sink1 -->
<g id="node6" class="node">
<title>Sink1</title>
<ellipse fill="none" stroke="black" cx="521.88" cy="-221.1" rx="31.4" ry="18"/>
<text text-anchor="middle" x="521.88" y="-217.4" font-family="Times,serif" font-size="14.00">Sink</text>
</g>
<!-- Shard1&#45;&gt;Sink1 -->
<g id="edge7" class="edge">
<title>Shard1&#45;&gt;Sink1</title>
<path fill="none" stroke="black" d="M291.37,-206.95C344.31,-210.21 430.29,-215.51 480.62,-218.62"/>
<polygon fill="black" stroke="black" points="480.6,-222.12 490.8,-219.25 481.03,-215.14 480.6,-222.12"/>
<text text-anchor="middle" x="391.18" y="-220.9" font-family="Times,serif" font-size="14.00">1 Tgas / 1000 Tgas</text>
</g>
<!-- Shard3 -->
<g id="node11" class="node">
<title>Shard3</title>
<ellipse fill="none" stroke="black" cx="244.24" cy="-77.1" rx="47.39" ry="18"/>
<text text-anchor="middle" x="244.24" y="-73.4" font-family="Times,serif" font-size="14.00">Shard 3</text>
</g>
<!-- Shard1&#45;&gt;Shard3 -->
<g id="edge12" class="edge">
<title>Shard1&#45;&gt;Shard3</title>
<path fill="none" stroke="black" d="M206.73,-193.01C162.52,-177.99 98.28,-148.85 125.29,-112.6 139.59,-93.41 163.87,-84.19 186.78,-79.9"/>
<polygon fill="black" stroke="black" points="187.5,-83.33 196.83,-78.3 186.4,-76.41 187.5,-83.33"/>
<text text-anchor="middle" x="141.29" y="-116.4" font-family="Times,serif" font-size="14.00">999 Tgas</text>
</g>
<!-- Sink1&#45;&gt;invisible_sink1 -->
<!-- Source2 -->
<g id="node7" class="node">
<title>Source2</title>
<ellipse fill="none" stroke="black" cx="42.9" cy="-151.1" rx="42.79" ry="18"/>
<text text-anchor="middle" x="42.9" y="-147.4" font-family="Times,serif" font-size="14.00">Source</text>
</g>
<!-- Shard2 -->
<g id="node8" class="node">
<title>Shard2</title>
<ellipse fill="none" stroke="black" cx="244.24" cy="-149.1" rx="47.39" ry="18"/>
<text text-anchor="middle" x="244.24" y="-145.4" font-family="Times,serif" font-size="14.00">Shard 2</text>
</g>
<!-- Source2&#45;&gt;Shard2 -->
<g id="edge8" class="edge">
<title>Source2&#45;&gt;Shard2</title>
<path fill="none" stroke="black" d="M86.17,-150.68C115.36,-150.38 154.5,-149.99 186.41,-149.67"/>
<polygon fill="black" stroke="black" points="186.53,-153.17 196.49,-149.57 186.46,-146.17 186.53,-153.17"/>
<text text-anchor="middle" x="141.29" y="-154.9" font-family="Times,serif" font-size="14.00">1000 Tgas</text>
</g>
<!-- Sink2 -->
<g id="node9" class="node">
<title>Sink2</title>
<ellipse fill="none" stroke="black" cx="521.88" cy="-131.1" rx="31.4" ry="18"/>
<text text-anchor="middle" x="521.88" y="-127.4" font-family="Times,serif" font-size="14.00">Sink</text>
</g>
<!-- Shard2&#45;&gt;Sink2 -->
<g id="edge9" class="edge">
<title>Shard2&#45;&gt;Sink2</title>
<path fill="none" stroke="black" d="M291.06,-146.11C343.95,-142.65 430.08,-137.03 480.53,-133.74"/>
<polygon fill="black" stroke="black" points="480.97,-137.21 490.73,-133.07 480.52,-130.23 480.97,-137.21"/>
<text text-anchor="middle" x="391.18" y="-148.9" font-family="Times,serif" font-size="14.00">1 Tgas / 1000 Tgas</text>
</g>
<!-- Shard2&#45;&gt;Shard3 -->
<g id="edge13" class="edge">
<title>Shard2&#45;&gt;Shard3</title>
<path fill="none" stroke="black" d="M244.24,-130.69C244.24,-123.04 244.24,-113.99 244.24,-105.53"/>
<polygon fill="black" stroke="black" points="247.74,-105.27 244.24,-95.27 240.74,-105.27 247.74,-105.27"/>
<text text-anchor="middle" x="233.74" y="-109.4" font-family="Times,serif" font-size="14.00">999 Tgas</text>
</g>
<!-- Sink2&#45;&gt;invisible_sink2 -->
<!-- Source3 -->
<g id="node10" class="node">
<title>Source3</title>
<ellipse fill="none" stroke="black" cx="42.9" cy="-77.1" rx="42.79" ry="18"/>
<text text-anchor="middle" x="42.9" y="-73.4" font-family="Times,serif" font-size="14.00">Source</text>
</g>
<!-- Source3&#45;&gt;Shard3 -->
<g id="edge10" class="edge">
<title>Source3&#45;&gt;Shard3</title>
<path fill="none" stroke="black" d="M86.17,-77.1C115.36,-77.1 154.5,-77.1 186.41,-77.1"/>
<polygon fill="black" stroke="black" points="186.49,-80.6 196.49,-77.1 186.49,-73.6 186.49,-80.6"/>
<text text-anchor="middle" x="141.29" y="-80.9" font-family="Times,serif" font-size="14.00">1000 Tgas</text>
</g>
<!-- Sink3 -->
<g id="node12" class="node">
<title>Sink3</title>
<ellipse fill="none" stroke="black" cx="521.88" cy="-77.1" rx="31.4" ry="18"/>
<text text-anchor="middle" x="521.88" y="-73.4" font-family="Times,serif" font-size="14.00">Sink</text>
</g>
<!-- Shard3&#45;&gt;Sink3 -->
<g id="edge11" class="edge">
<title>Shard3&#45;&gt;Sink3</title>
<path fill="none" stroke="red" stroke-width="3" d="M291.69,-77.1C344.54,-77.1 430.03,-77.1 480.31,-77.1"/>
<polygon fill="red" stroke="red" stroke-width="3" points="480.48,-80.6 490.48,-77.1 480.48,-73.6 480.48,-80.6"/>
<text text-anchor="middle" x="391.18" y="-80.9" font-family="Times,serif" font-size="14.00">2998 Tgas / 1000 Tgas</text>
</g>
<!-- Sink3&#45;&gt;invisible_sink3 -->
</g>
</svg>
