<?xml version="1.0" encoding="UTF-8" standalone="no"?>
<!DOCTYPE svg PUBLIC "-//W3C//DTD SVG 1.1//EN"
 "http://www.w3.org/Graphics/SVG/1.1/DTD/svg11.dtd">
<!-- Generated by graphviz version 2.43.0 (0)
 -->
<!-- Title: G Pages: 1 -->
<svg width="568pt" height="261pt"
 viewBox="0.00 0.00 568.08 261.21" xmlns="http://www.w3.org/2000/svg" xmlns:xlink="http://www.w3.org/1999/xlink">
<g id="graph0" class="graph" transform="scale(1 1) rotate(0) translate(4 257.21)">
<title>G</title>
<polygon fill="white" stroke="transparent" points="-4,4 -4,-257.21 564.08,-257.21 564.08,4 -4,4"/>
<!-- invisible_sink1 -->
<g id="node1" class="node">
<title>invisible_sink1</title>
<ellipse fill="black" stroke="black" cx="528.88" cy="-127.21" rx="0" ry="0"/>
</g>
<!-- invisible_sink2 -->
<g id="node2" class="node">
<title>invisible_sink2</title>
<ellipse fill="black" stroke="black" cx="528.88" cy="-37.21" rx="0" ry="0"/>
</g>
<!-- invisible_sink1&#45;&gt;invisible_sink2 -->
<!-- invisible_sink3 -->
<g id="node3" class="node">
<title>invisible_sink3</title>
<ellipse fill="black" stroke="black" cx="528.88" cy="-1.21" rx="0" ry="0"/>
</g>
<!-- invisible_sink2&#45;&gt;invisible_sink3 -->
<!-- Source1 -->
<g id="node4" class="node">
<title>Source1</title>
<ellipse fill="none" stroke="black" cx="42.9" cy="-171.21" rx="42.79" ry="18"/>
<text text-anchor="middle" x="42.9" y="-167.51" font-family="Times,serif" font-size="14.00">Source</text>
</g>
<!-- Shard1 -->
<g id="node5" class="node">
<title>Shard1</title>
<ellipse fill="none" stroke="black" cx="260.24" cy="-171.21" rx="47.39" ry="18"/>
<text text-anchor="middle" x="260.24" y="-167.51" font-family="Times,serif" font-size="14.00">Shard 1</text>
</g>
<!-- Source1&#45;&gt;Shard1 -->
<g id="edge6" class="edge">
<title>Source1&#45;&gt;Shard1</title>
<path fill="none" stroke="green" stroke-width="3" d="M85.93,-171.21C119.16,-171.21 165.87,-171.21 202.43,-171.21"/>
<polygon fill="green" stroke="green" stroke-width="3" points="202.45,-174.71 212.45,-171.21 202.45,-167.71 202.45,-174.71"/>
<text text-anchor="middle" x="149.29" y="-175.01" font-family="Times,serif" font-size="14.00">300 Tgas / ∞</text>
</g>
<!-- Sink1 -->
<g id="node6" class="node">
<title>Sink1</title>
<ellipse fill="none" stroke="black" cx="528.88" cy="-181.21" rx="31.4" ry="18"/>
<text text-anchor="middle" x="528.88" y="-177.51" font-family="Times,serif" font-size="14.00">Sink</text>
</g>
<!-- Shard1&#45;&gt;Sink1 -->
<g id="edge7" class="edge">
<title>Shard1&#45;&gt;Sink1</title>
<path fill="none" stroke="green" stroke-width="3" d="M307.68,-172.95C358.56,-174.86 439.34,-177.89 487.62,-179.7"/>
<polygon fill="green" stroke="green" stroke-width="3" points="487.57,-183.2 497.7,-180.08 487.84,-176.2 487.57,-183.2"/>
<text text-anchor="middle" x="402.68" y="-183.01" font-family="Times,serif" font-size="14.00">100 Tgas / 1000 Tgas</text>
</g>
<!-- Shard2 -->
<g id="node8" class="node">
<title>Shard2</title>
<ellipse fill="none" stroke="black" cx="260.24" cy="-97.21" rx="47.39" ry="18"/>
<text text-anchor="middle" x="260.24" y="-93.51" font-family="Times,serif" font-size="14.00">Shard 2</text>
</g>
<!-- Shard1&#45;&gt;Shard2 -->
<g id="edge12" class="edge">
<title>Shard1&#45;&gt;Shard2</title>
<path fill="none" stroke="green" stroke-width="3" d="M260.24,-153.13C260.24,-144.82 260.24,-134.78 260.24,-125.51"/>
<polygon fill="green" stroke="green" stroke-width="3" points="263.74,-125.5 260.24,-115.5 256.74,-125.5 263.74,-125.5"/>
<text text-anchor="middle" x="249.74" y="-130.51" font-family="Times,serif" font-size="14.00">200 Tgas / ∞</text>
</g>
<!-- Sink1&#45;&gt;invisible_sink1 -->
<!-- Source2 -->
<g id="node7" class="node">
<title>Source2</title>
<ellipse fill="none" stroke="black" cx="42.9" cy="-97.21" rx="42.79" ry="18"/>
<text text-anchor="middle" x="42.9" y="-93.51" font-family="Times,serif" font-size="14.00">Source</text>
</g>
<!-- Source2&#45;&gt;Shard2 -->
<g id="edge8" class="edge">
<title>Source2&#45;&gt;Shard2</title>
<path fill="none" stroke="black" d="M85.93,-97.21C119.16,-97.21 165.87,-97.21 202.43,-97.21"/>
<polygon fill="black" stroke="black" points="202.45,-100.71 212.45,-97.21 202.45,-93.71 202.45,-100.71"/>
<text text-anchor="middle" x="149.29" y="-101.01" font-family="Times,serif" font-size="14.00">0 / ∞</text>
</g>
<!-- Sink2 -->
<g id="node9" class="node">
<title>Sink2</title>
<ellipse fill="none" stroke="black" cx="528.88" cy="-91.21" rx="31.4" ry="18"/>
<text text-anchor="middle" x="528.88" y="-87.51" font-family="Times,serif" font-size="14.00">Sink</text>
</g>
<!-- Shard2&#45;&gt;Sink2 -->
<g id="edge9" class="edge">
<title>Shard2&#45;&gt;Sink2</title>
<path fill="none" stroke="green" stroke-width="3" d="M307.68,-96.16C358.56,-95.02 439.34,-93.2 487.62,-92.11"/>
<polygon fill="green" stroke="green" stroke-width="3" points="487.78,-95.61 497.7,-91.89 487.62,-88.61 487.78,-95.61"/>
<text text-anchor="middle" x="402.68" y="-100.01" font-family="Times,serif" font-size="14.00">200 Tgas / 1000 Tgas</text>
</g>
<!-- Sink2&#45;&gt;invisible_sink2 -->
<!-- Source3 -->
<g id="node10" class="node">
<title>Source3</title>
<ellipse fill="none" stroke="black" cx="42.9" cy="-235.21" rx="42.79" ry="18"/>
<text text-anchor="middle" x="42.9" y="-231.51" font-family="Times,serif" font-size="14.00">Source</text>
</g>
<!-- Shard3 -->
<g id="node11" class="node">
<title>Shard3</title>
<ellipse fill="none" stroke="black" cx="260.24" cy="-235.21" rx="47.39" ry="18"/>
<text text-anchor="middle" x="260.24" y="-231.51" font-family="Times,serif" font-size="14.00">Shard 3</text>
</g>
<!-- Source3&#45;&gt;Shard3 -->
<g id="edge10" class="edge">
<title>Source3&#45;&gt;Shard3</title>
<path fill="none" stroke="black" d="M85.93,-235.21C119.16,-235.21 165.87,-235.21 202.43,-235.21"/>
<polygon fill="black" stroke="black" points="202.45,-238.71 212.45,-235.21 202.45,-231.71 202.45,-238.71"/>
<text text-anchor="middle" x="149.29" y="-239.01" font-family="Times,serif" font-size="14.00">0 / ∞</text>
</g>
<!-- Sink3 -->
<g id="node12" class="node">
<title>Sink3</title>
<ellipse fill="none" stroke="black" cx="528.88" cy="-235.21" rx="31.4" ry="18"/>
<text text-anchor="middle" x="528.88" y="-231.51" font-family="Times,serif" font-size="14.00">Sink</text>
</g>
<!-- Shard3&#45;&gt;Sink3 -->
<g id="edge11" class="edge">
<title>Shard3&#45;&gt;Sink3</title>
<path fill="none" stroke="black" d="M307.99,-235.21C358.78,-235.21 439.1,-235.21 487.32,-235.21"/>
<polygon fill="black" stroke="black" points="487.39,-238.71 497.39,-235.21 487.39,-231.71 487.39,-238.71"/>
<text text-anchor="middle" x="402.68" y="-239.01" font-family="Times,serif" font-size="14.00">0 / 1000 Tgas</text>
</g>
<!-- Sink3&#45;&gt;invisible_sink3 -->
</g>
</svg>
