<?xml version="1.0" encoding="UTF-8" standalone="no"?>
<!DOCTYPE svg PUBLIC "-//W3C//DTD SVG 1.1//EN"
 "http://www.w3.org/Graphics/SVG/1.1/DTD/svg11.dtd">
<!-- Generated by graphviz version 2.43.0 (0)
 -->
<!-- Title: G Pages: 1 -->
<svg width="393pt" height="192pt"
 viewBox="0.00 0.00 392.88 192.00" xmlns="http://www.w3.org/2000/svg" xmlns:xlink="http://www.w3.org/1999/xlink">
<g id="graph0" class="graph" transform="scale(1 1) rotate(0) translate(4 188)">
<title>G</title>
<polygon fill="white" stroke="transparent" points="-4,4 -4,-188 388.88,-188 388.88,4 -4,4"/>
<!-- Source1 -->
<g id="node1" class="node">
<title>Source1</title>
<ellipse fill="none" stroke="black" cx="42.9" cy="-112" rx="42.79" ry="18"/>
<text text-anchor="middle" x="42.9" y="-108.3" font-family="Times,serif" font-size="14.00">Source</text>
</g>
<!-- Shard1 -->
<g id="node2" class="node">
<title>Shard1</title>
<ellipse fill="none" stroke="black" cx="173.14" cy="-90" rx="38.19" ry="18"/>
<text text-anchor="middle" x="173.14" y="-86.3" font-family="Times,serif" font-size="14.00">Shard</text>
</g>
<!-- Source1&#45;&gt;Shard1 -->
<g id="edge1" class="edge">
<title>Source1&#45;&gt;Shard1</title>
<path fill="none" stroke="black" d="M83.07,-105.28C96.82,-102.92 112.39,-100.25 126.61,-97.81"/>
<polygon fill="black" stroke="black" points="127.43,-101.22 136.69,-96.08 126.25,-94.32 127.43,-101.22"/>
<text text-anchor="middle" x="110.29" y="-105.8" font-family="Times,serif" font-size="14.00">∞</text>
</g>
<!-- Sink1 -->
<g id="node3" class="node">
<title>Sink1</title>
<ellipse fill="none" stroke="black" cx="353.68" cy="-90" rx="31.4" ry="18"/>
<text text-anchor="middle" x="353.68" y="-86.3" font-family="Times,serif" font-size="14.00">Sink</text>
</g>
<!-- Shard1&#45;&gt;Sink1 -->
<g id="edge2" class="edge">
<title>Shard1&#45;&gt;Sink1</title>
<path fill="none" stroke="black" d="M211.57,-90C241.02,-90 282,-90 312.21,-90"/>
<polygon fill="black" stroke="black" points="312.41,-93.5 322.41,-90 312.41,-86.5 312.41,-93.5"/>
<text text-anchor="middle" x="266.99" y="-93.8" font-family="Times,serif" font-size="14.00">1000 Tgas</text>
</g>
<!-- Shard2 -->
<g id="node5" class="node">
<title>Shard2</title>
<ellipse fill="none" stroke="black" cx="173.14" cy="-18" rx="38.19" ry="18"/>
<text text-anchor="middle" x="173.14" y="-14.3" font-family="Times,serif" font-size="14.00">Shard</text>
</g>
<!-- Shard1&#45;&gt;Shard2 -->
<g id="edge7" class="edge">
<title>Shard1&#45;&gt;Shard2</title>
<path fill="none" stroke="black" d="M173.14,-71.59C173.14,-63.94 173.14,-54.89 173.14,-46.43"/>
<polygon fill="black" stroke="black" points="176.64,-46.17 173.14,-36.17 169.64,-46.17 176.64,-46.17"/>
<text text-anchor="middle" x="162.64" y="-50.3" font-family="Times,serif" font-size="14.00">∞</text>
</g>
<!-- Shard3 -->
<g id="node8" class="node">
<title>Shard3</title>
<ellipse fill="none" stroke="black" cx="173.14" cy="-162" rx="38.19" ry="18"/>
<text text-anchor="middle" x="173.14" y="-158.3" font-family="Times,serif" font-size="14.00">Shard</text>
</g>
<!-- Shard1&#45;&gt;Shard3 -->
<g id="edge9" class="edge">
<title>Shard1&#45;&gt;Shard3</title>
<path fill="none" stroke="black" d="M173.14,-108.17C173.14,-115.87 173.14,-125.03 173.14,-133.58"/>
<polygon fill="black" stroke="black" points="169.64,-133.59 173.14,-143.59 176.64,-133.59 169.64,-133.59"/>
<text text-anchor="middle" x="162.64" y="-122.3" font-family="Times,serif" font-size="14.00">∞</text>
</g>
<!-- Source2 -->
<g id="node4" class="node">
<title>Source2</title>
<ellipse fill="none" stroke="black" cx="42.9" cy="-18" rx="42.79" ry="18"/>
<text text-anchor="middle" x="42.9" y="-14.3" font-family="Times,serif" font-size="14.00">Source</text>
</g>
<!-- Source2&#45;&gt;Shard2 -->
<g id="edge3" class="edge">
<title>Source2&#45;&gt;Shard2</title>
<path fill="none" stroke="black" d="M85.89,-18C98.1,-18 111.53,-18 124.09,-18"/>
<polygon fill="black" stroke="black" points="124.38,-21.5 134.38,-18 124.38,-14.5 124.38,-21.5"/>
<text text-anchor="middle" x="110.29" y="-21.8" font-family="Times,serif" font-size="14.00">∞</text>
</g>
<!-- Shard2&#45;&gt;Shard1 -->
<g id="edge8" class="edge">
<title>Shard2&#45;&gt;Shard1</title>
<path fill="none" stroke="black" d="M186.12,-35.01C190.42,-42.65 193.57,-51.86 191.14,-60.5 190.84,-61.57 190.49,-62.64 190.1,-63.7"/>
<polygon fill="black" stroke="black" points="186.83,-62.42 185.68,-72.95 193.14,-65.44 186.83,-62.42"/>
<text text-anchor="middle" x="183.64" y="-50.3" font-family="Times,serif" font-size="14.00">∞</text>
</g>
<!-- Sink2 -->
<g id="node6" class="node">
<title>Sink2</title>
<ellipse fill="none" stroke="black" cx="353.68" cy="-18" rx="31.4" ry="18"/>
<text text-anchor="middle" x="353.68" y="-14.3" font-family="Times,serif" font-size="14.00">Sink</text>
</g>
<!-- Shard2&#45;&gt;Sink2 -->
<g id="edge4" class="edge">
<title>Shard2&#45;&gt;Sink2</title>
<path fill="none" stroke="black" d="M211.57,-18C241.02,-18 282,-18 312.21,-18"/>
<polygon fill="black" stroke="black" points="312.41,-21.5 322.41,-18 312.41,-14.5 312.41,-21.5"/>
<text text-anchor="middle" x="266.99" y="-21.8" font-family="Times,serif" font-size="14.00">1000 Tgas</text>
</g>
<!-- Shard2&#45;&gt;Shard3 -->
<g id="edge11" class="edge">
<title>Shard2&#45;&gt;Shard3</title>
<path fill="none" stroke="black" d="M148.34,-31.76C128.84,-44.61 106.15,-65.25 113.79,-88.5 120.13,-107.78 134.2,-125.59 147.05,-138.85"/>
<polygon fill="black" stroke="black" points="144.83,-141.57 154.41,-146.11 149.75,-136.59 144.83,-141.57"/>
<text text-anchor="middle" x="110.29" y="-77.3" font-family="Times,serif" font-size="14.00">∞</text>
</g>
<!-- Source3 -->
<g id="node7" class="node">
<title>Source3</title>
<ellipse fill="none" stroke="black" cx="42.9" cy="-166" rx="42.79" ry="18"/>
<text text-anchor="middle" x="42.9" y="-162.3" font-family="Times,serif" font-size="14.00">Source</text>
</g>
<!-- Source3&#45;&gt;Shard3 -->
<g id="edge5" class="edge">
<title>Source3&#45;&gt;Shard3</title>
<path fill="none" stroke="black" d="M85.89,-164.69C98.21,-164.31 111.79,-163.88 124.44,-163.49"/>
<polygon fill="black" stroke="black" points="124.92,-166.97 134.81,-163.16 124.7,-159.98 124.92,-166.97"/>
<text text-anchor="middle" x="110.29" y="-168.8" font-family="Times,serif" font-size="14.00">∞</text>
</g>
<!-- Shard3&#45;&gt;Shard1 -->
<g id="edge10" class="edge">
<title>Shard3&#45;&gt;Shard1</title>
<path fill="none" stroke="black" d="M185.68,-144.95C187.93,-141.04 189.94,-136.77 191.14,-132.5 192.66,-127.1 192,-121.48 190.24,-116.15"/>
<polygon fill="black" stroke="black" points="193.42,-114.69 186.12,-107.01 187.04,-117.57 193.42,-114.69"/>
<text text-anchor="middle" x="183.64" y="-122.3" font-family="Times,serif" font-size="14.00">∞</text>
</g>
<!-- Shard3&#45;&gt;Shard2 -->
<g id="edge12" class="edge">
<title>Shard3&#45;&gt;Shard2</title>
<path fill="none" stroke="black" d="M154.41,-146.11C140.02,-132.52 121.37,-111.56 113.79,-88.5 107.22,-68.52 123.06,-50.46 140.02,-37.63"/>
<polygon fill="black" stroke="black" points="142.18,-40.38 148.34,-31.76 138.15,-34.66 142.18,-40.38"/>
<text text-anchor="middle" x="110.29" y="-77.3" font-family="Times,serif" font-size="14.00">∞</text>
</g>
<!-- Sink3 -->
<g id="node9" class="node">
<title>Sink3</title>
<ellipse fill="none" stroke="black" cx="353.68" cy="-162" rx="31.4" ry="18"/>
<text text-anchor="middle" x="353.68" y="-158.3" font-family="Times,serif" font-size="14.00">Sink</text>
</g>
<!-- Shard3&#45;&gt;Sink3 -->
<g id="edge6" class="edge">
<title>Shard3&#45;&gt;Sink3</title>
<path fill="none" stroke="black" d="M211.57,-162C241.02,-162 282,-162 312.21,-162"/>
<polygon fill="black" stroke="black" points="312.41,-165.5 322.41,-162 312.41,-158.5 312.41,-165.5"/>
<text text-anchor="middle" x="266.99" y="-165.8" font-family="Times,serif" font-size="14.00">1000 Tgas</text>
</g>
</g>
</svg>
