<?xml version="1.0" encoding="UTF-8" standalone="no"?>
<!DOCTYPE svg PUBLIC "-//W3C//DTD SVG 1.1//EN"
 "http://www.w3.org/Graphics/SVG/1.1/DTD/svg11.dtd">
<!-- Generated by graphviz version 2.43.0 (0)
 -->
<!-- Title: G Pages: 1 -->
<svg width="543pt" height="246pt"
 viewBox="0.00 0.00 543.08 246.45" xmlns="http://www.w3.org/2000/svg" xmlns:xlink="http://www.w3.org/1999/xlink">
<g id="graph0" class="graph" transform="scale(1 1) rotate(0) translate(4 242.45)">
<title>G</title>
<polygon fill="white" stroke="transparent" points="-4,4 -4,-242.45 539.08,-242.45 539.08,4 -4,4"/>
<!-- invisible_sink1 -->
<g id="node1" class="node">
<title>invisible_sink1</title>
<ellipse fill="black" stroke="black" cx="503.88" cy="-166.45" rx="0" ry="0"/>
</g>
<!-- invisible_sink2 -->
<g id="node2" class="node">
<title>invisible_sink2</title>
<ellipse fill="black" stroke="black" cx="503.88" cy="-40.45" rx="0" ry="0"/>
</g>
<!-- invisible_sink1&#45;&gt;invisible_sink2 -->
<!-- invisible_sink3 -->
<g id="node3" class="node">
<title>invisible_sink3</title>
<ellipse fill="black" stroke="black" cx="503.88" cy="-4.45" rx="0" ry="0"/>
</g>
<!-- invisible_sink2&#45;&gt;invisible_sink3 -->
<!-- Source1 -->
<g id="node4" class="node">
<title>Source1</title>
<ellipse fill="none" stroke="black" cx="42.9" cy="-220.45" rx="42.79" ry="18"/>
<text text-anchor="middle" x="42.9" y="-216.75" font-family="Times,serif" font-size="14.00">Source</text>
</g>
<!-- Shard1 -->
<g id="node5" class="node">
<title>Shard1</title>
<ellipse fill="none" stroke="black" cx="235.24" cy="-220.45" rx="47.39" ry="18"/>
<text text-anchor="middle" x="235.24" y="-216.75" font-family="Times,serif" font-size="14.00">Shard 1</text>
</g>
<!-- Source1&#45;&gt;Shard1 -->
<g id="edge6" class="edge">
<title>Source1&#45;&gt;Shard1</title>
<path fill="none" stroke="red" stroke-width="3" d="M86.14,-220.45C113.08,-220.45 148.32,-220.45 177.67,-220.45"/>
<polygon fill="red" stroke="red" stroke-width="3" points="177.78,-223.95 187.78,-220.45 177.78,-216.95 177.78,-223.95"/>
<text text-anchor="middle" x="136.79" y="-224.25" font-family="Times,serif" font-size="14.00">333 Tgas</text>
</g>
<!-- Sink1 -->
<g id="node6" class="node">
<title>Sink1</title>
<ellipse fill="none" stroke="black" cx="503.88" cy="-220.45" rx="31.4" ry="18"/>
<text text-anchor="middle" x="503.88" y="-216.75" font-family="Times,serif" font-size="14.00">Sink</text>
</g>
<!-- Shard1&#45;&gt;Sink1 -->
<g id="edge7" class="edge">
<title>Shard1&#45;&gt;Sink1</title>
<path fill="none" stroke="black" d="M282.99,-220.45C333.78,-220.45 414.1,-220.45 462.32,-220.45"/>
<polygon fill="black" stroke="black" points="462.39,-223.95 472.39,-220.45 462.39,-216.95 462.39,-223.95"/>
<text text-anchor="middle" x="377.68" y="-224.25" font-family="Times,serif" font-size="14.00">1 Tgas / 1000 Tgas</text>
</g>
<!-- Shard3 -->
<g id="node11" class="node">
<title>Shard3</title>
<ellipse fill="none" stroke="black" cx="235.24" cy="-61.45" rx="47.39" ry="18"/>
<text text-anchor="middle" x="235.24" y="-57.75" font-family="Times,serif" font-size="14.00">Shard 3</text>
</g>
<!-- Shard1&#45;&gt;Shard3 -->
<g id="edge12" class="edge">
<title>Shard1&#45;&gt;Shard3</title>
<path fill="none" stroke="black" d="M201.5,-207.68C158.7,-189.44 93.41,-153.62 119.79,-112.95 133.64,-91.61 158.63,-79.04 181.82,-71.67"/>
<polygon fill="black" stroke="black" points="182.99,-74.97 191.61,-68.82 181.03,-68.25 182.99,-74.97"/>
<text text-anchor="middle" x="136.79" y="-116.75" font-family="Times,serif" font-size="14.00">332 Tgas</text>
</g>
<!-- Sink1&#45;&gt;invisible_sink1 -->
<!-- Source2 -->
<g id="node7" class="node">
<title>Source2</title>
<ellipse fill="none" stroke="black" cx="42.9" cy="-166.45" rx="42.79" ry="18"/>
<text text-anchor="middle" x="42.9" y="-162.75" font-family="Times,serif" font-size="14.00">Source</text>
</g>
<!-- Shard2 -->
<g id="node8" class="node">
<title>Shard2</title>
<ellipse fill="none" stroke="black" cx="235.24" cy="-166.45" rx="47.39" ry="18"/>
<text text-anchor="middle" x="235.24" y="-162.75" font-family="Times,serif" font-size="14.00">Shard 2</text>
</g>
<!-- Source2&#45;&gt;Shard2 -->
<g id="edge8" class="edge">
<title>Source2&#45;&gt;Shard2</title>
<path fill="none" stroke="red" stroke-width="3" d="M86.14,-166.45C113.08,-166.45 148.32,-166.45 177.67,-166.45"/>
<polygon fill="red" stroke="red" stroke-width="3" points="177.78,-169.95 187.78,-166.45 177.78,-162.95 177.78,-169.95"/>
<text text-anchor="middle" x="136.79" y="-170.25" font-family="Times,serif" font-size="14.00">333 Tgas</text>
</g>
<!-- Sink2 -->
<g id="node9" class="node">
<title>Sink2</title>
<ellipse fill="none" stroke="black" cx="503.88" cy="-130.45" rx="31.4" ry="18"/>
<text text-anchor="middle" x="503.88" y="-126.75" font-family="Times,serif" font-size="14.00">Sink</text>
</g>
<!-- Shard2&#45;&gt;Sink2 -->
<g id="edge9" class="edge">
<title>Shard2&#45;&gt;Sink2</title>
<path fill="none" stroke="black" d="M280.27,-160.51C331.12,-153.64 414.04,-142.45 463.05,-135.83"/>
<polygon fill="black" stroke="black" points="463.82,-139.26 473.26,-134.45 462.88,-132.32 463.82,-139.26"/>
<text text-anchor="middle" x="377.68" y="-161.25" font-family="Times,serif" font-size="14.00">1 Tgas / 1000 Tgas</text>
</g>
<!-- Shard2&#45;&gt;Shard3 -->
<g id="edge13" class="edge">
<title>Shard2&#45;&gt;Shard3</title>
<path fill="none" stroke="black" d="M235.24,-148.37C235.24,-132.26 235.24,-108.4 235.24,-89.75"/>
<polygon fill="black" stroke="black" points="238.74,-89.74 235.24,-79.74 231.74,-89.74 238.74,-89.74"/>
<text text-anchor="middle" x="224.74" y="-110.25" font-family="Times,serif" font-size="14.00">332 Tgas</text>
</g>
<!-- Sink2&#45;&gt;invisible_sink2 -->
<!-- Source3 -->
<g id="node10" class="node">
<title>Source3</title>
<ellipse fill="none" stroke="black" cx="42.9" cy="-61.45" rx="42.79" ry="18"/>
<text text-anchor="middle" x="42.9" y="-57.75" font-family="Times,serif" font-size="14.00">Source</text>
</g>
<!-- Source3&#45;&gt;Shard3 -->
<g id="edge10" class="edge">
<title>Source3&#45;&gt;Shard3</title>
<path fill="none" stroke="red" stroke-width="3" d="M86.14,-61.45C113.08,-61.45 148.32,-61.45 177.67,-61.45"/>
<polygon fill="red" stroke="red" stroke-width="3" points="177.78,-64.95 187.78,-61.45 177.78,-57.95 177.78,-64.95"/>
<text text-anchor="middle" x="136.79" y="-65.25" font-family="Times,serif" font-size="14.00">333 Tgas</text>
</g>
<!-- Shard3&#45;&gt;Shard3 -->
<g id="edge14" class="edge">
<title>Shard3&#45;&gt;Shard3</title>
<path fill="none" stroke="black" d="M217.82,-88.81C219.98,-93.88 225.79,-97.45 235.24,-97.45 250.36,-97.45 256.15,-88.31 252.6,-78.49"/>
<polygon fill="black" stroke="black" points="221.32,-88.51 217.87,-78.49 214.32,-88.47 221.32,-88.51"/>
<text text-anchor="middle" x="235.24" y="-101.25" font-family="Times,serif" font-size="14.00">332 Tgas</text>
</g>
<!-- Sink3 -->
<g id="node12" class="node">
<title>Sink3</title>
<ellipse fill="none" stroke="black" cx="503.88" cy="-76.45" rx="31.4" ry="18"/>
<text text-anchor="middle" x="503.88" y="-72.75" font-family="Times,serif" font-size="14.00">Sink</text>
</g>
<!-- Shard3&#45;&gt;Sink3 -->
<g id="edge11" class="edge">
<title>Shard3&#45;&gt;Sink3</title>
<path fill="none" stroke="green" stroke-width="3" d="M282.38,-64.05C333.2,-66.91 414.13,-71.46 462.52,-74.18"/>
<polygon fill="green" stroke="green" stroke-width="3" points="462.44,-77.68 472.63,-74.75 462.84,-70.7 462.44,-77.68"/>
<text text-anchor="middle" x="377.68" y="-78.25" font-family="Times,serif" font-size="14.00">997 Tgas / 1000 Tgas</text>
</g>
<!-- Sink3&#45;&gt;invisible_sink3 -->
</g>
</svg>
