<?xml version="1.0" encoding="UTF-8" standalone="no"?>
<!DOCTYPE svg PUBLIC "-//W3C//DTD SVG 1.1//EN"
 "http://www.w3.org/Graphics/SVG/1.1/DTD/svg11.dtd">
<!-- Generated by graphviz version 2.43.0 (0)
 -->
<!-- Title: G Pages: 1 -->
<svg width="844pt" height="200pt"
 viewBox="0.00 0.00 844.08 200.00" xmlns="http://www.w3.org/2000/svg" xmlns:xlink="http://www.w3.org/1999/xlink">
<g id="graph0" class="graph" transform="scale(1 1) rotate(0) translate(4 196)">
<title>G</title>
<polygon fill="white" stroke="transparent" points="-4,4 -4,-196 840.08,-196 840.08,4 -4,4"/>
<!-- invisible_sink1 -->
<g id="node1" class="node">
<title>invisible_sink1</title>
<ellipse fill="black" stroke="black" cx="804.88" cy="-90" rx="0" ry="0"/>
</g>
<!-- invisible_sink2 -->
<g id="node2" class="node">
<title>invisible_sink2</title>
<ellipse fill="black" stroke="black" cx="804.88" cy="0" rx="0" ry="0"/>
</g>
<!-- invisible_sink1&#45;&gt;invisible_sink2 -->
<!-- Source1 -->
<g id="node3" class="node">
<title>Source1</title>
<ellipse fill="none" stroke="black" cx="42.9" cy="-132" rx="42.79" ry="18"/>
<text text-anchor="middle" x="42.9" y="-128.3" font-family="Times,serif" font-size="14.00">Source</text>
</g>
<!-- Shard1 -->
<g id="node4" class="node">
<title>Shard1</title>
<ellipse fill="none" stroke="black" cx="341.24" cy="-142" rx="47.39" ry="18"/>
<text text-anchor="middle" x="341.24" y="-138.3" font-family="Times,serif" font-size="14.00">Shard 1</text>
</g>
<!-- Source1&#45;&gt;Shard1 -->
<g id="edge7" class="edge">
<title>Source1&#45;&gt;Shard1</title>
<path fill="none" stroke="red" stroke-width="3" d="M85.73,-133.41C137.5,-135.16 225.89,-138.14 283.68,-140.09"/>
<polygon fill="red" stroke="red" stroke-width="3" points="283.63,-143.59 293.74,-140.43 283.87,-136.6 283.63,-143.59"/>
<text text-anchor="middle" x="189.79" y="-142.8" font-family="Times,serif" font-size="14.00">blocked tx to shard 1+2</text>
</g>
<!-- Source2 -->
<g id="node7" class="node">
<title>Source2</title>
<ellipse fill="none" stroke="black" cx="42.9" cy="-59" rx="42.79" ry="18"/>
<text text-anchor="middle" x="42.9" y="-55.3" font-family="Times,serif" font-size="14.00">Source</text>
</g>
<!-- Source1&#45;&gt;Source2 -->
<!-- Sink1 -->
<g id="node5" class="node">
<title>Sink1</title>
<ellipse fill="none" stroke="black" cx="804.88" cy="-144" rx="31.4" ry="18"/>
<text text-anchor="middle" x="804.88" y="-140.3" font-family="Times,serif" font-size="14.00">Sink</text>
</g>
<!-- Shard1&#45;&gt;Sink1 -->
<g id="edge9" class="edge">
<title>Shard1&#45;&gt;Sink1</title>
<path fill="none" stroke="black" d="M378.76,-153.09C387.81,-155.43 397.53,-157.61 406.68,-159 551.71,-181.02 591.53,-185.14 736.68,-164 747.16,-162.47 758.28,-159.67 768.39,-156.64"/>
<polygon fill="black" stroke="black" points="769.63,-159.93 778.11,-153.58 767.52,-153.25 769.63,-159.93"/>
<text text-anchor="middle" x="629.18" y="-180.8" font-family="Times,serif" font-size="14.00">0 Tgas / 1000 Tgas (deadlock)</text>
</g>
<!-- Buffer1 -->
<g id="node6" class="node">
<title>Buffer1</title>
<polygon fill="none" stroke="red" stroke-width="2" points="736.68,-155 521.68,-155 521.68,-119 736.68,-119 736.68,-155"/>
<text text-anchor="middle" x="629.18" y="-133.3" font-family="Times,serif" font-size="14.00">Outgoing Buffer fills to max</text>
</g>
<!-- Shard1&#45;&gt;Buffer1 -->
<g id="edge11" class="edge">
<title>Shard1&#45;&gt;Buffer1</title>
<path fill="none" stroke="red" stroke-width="2" d="M388.82,-141.19C422.14,-140.6 468.55,-139.79 511.64,-139.04"/>
<polygon fill="red" stroke="red" stroke-width="2" points="511.71,-142.54 521.64,-138.86 511.58,-135.54 511.71,-142.54"/>
<text text-anchor="middle" x="455.18" y="-143.8" font-family="Times,serif" font-size="14.00">backpressure</text>
</g>
<!-- Sink1&#45;&gt;invisible_sink1 -->
<!-- Buffer1&#45;&gt;Sink1 -->
<!-- Shard2 -->
<g id="node8" class="node">
<title>Shard2</title>
<ellipse fill="none" stroke="black" cx="341.24" cy="-47" rx="47.39" ry="18"/>
<text text-anchor="middle" x="341.24" y="-43.3" font-family="Times,serif" font-size="14.00">Shard 2</text>
</g>
<!-- Buffer1&#45;&gt;Shard2 -->
<g id="edge12" class="edge">
<title>Buffer1&#45;&gt;Shard2</title>
<path fill="none" stroke="red" stroke-width="2" d="M582.36,-118.9C563.37,-111.08 541.26,-101.54 521.68,-92 513.46,-87.99 512.28,-85.14 503.68,-82 462.42,-66.93 449.57,-72.52 406.68,-63 401.61,-61.87 396.32,-60.65 391.06,-59.39"/>
<polygon fill="red" stroke="red" stroke-width="2" points="391.56,-55.91 381.01,-56.96 389.91,-62.72 391.56,-55.91"/>
<text text-anchor="middle" x="455.18" y="-85.8" font-family="Times,serif" font-size="14.00">backpressure</text>
</g>
<!-- Source2&#45;&gt;Shard2 -->
<g id="edge8" class="edge">
<title>Source2&#45;&gt;Shard2</title>
<path fill="none" stroke="red" stroke-width="3" d="M85.73,-57.31C137.5,-55.21 225.89,-51.63 283.68,-49.29"/>
<polygon fill="red" stroke="red" stroke-width="3" points="283.89,-52.78 293.74,-48.88 283.61,-45.79 283.89,-52.78"/>
<text text-anchor="middle" x="189.79" y="-60.8" font-family="Times,serif" font-size="14.00">blocked tx to shard 1+2</text>
</g>
<!-- Sink2 -->
<g id="node9" class="node">
<title>Sink2</title>
<ellipse fill="none" stroke="black" cx="804.88" cy="-54" rx="31.4" ry="18"/>
<text text-anchor="middle" x="804.88" y="-50.3" font-family="Times,serif" font-size="14.00">Sink</text>
</g>
<!-- Shard2&#45;&gt;Sink2 -->
<g id="edge10" class="edge">
<title>Shard2&#45;&gt;Sink2</title>
<path fill="none" stroke="black" d="M381.7,-37.52C453.35,-21.88 609.2,4.99 736.68,-23 749.33,-25.78 762.43,-31.17 773.68,-36.69"/>
<polygon fill="black" stroke="black" points="772.14,-39.84 782.63,-41.31 775.34,-33.61 772.14,-39.84"/>
<text text-anchor="middle" x="629.18" y="-26.8" font-family="Times,serif" font-size="14.00">0 Tgas / 1000 Tgas (deadlock)</text>
</g>
<!-- Buffer2 -->
<g id="node10" class="node">
<title>Buffer2</title>
<polygon fill="none" stroke="red" stroke-width="2" points="736.68,-83 521.68,-83 521.68,-47 736.68,-47 736.68,-83"/>
<text text-anchor="middle" x="629.18" y="-61.3" font-family="Times,serif" font-size="14.00">Outgoing Buffer fills to max</text>
</g>
<!-- Shard2&#45;&gt;Buffer2 -->
<g id="edge13" class="edge">
<title>Shard2&#45;&gt;Buffer2</title>
<path fill="none" stroke="red" stroke-width="2" d="M388.58,-45.7C420.88,-45.18 464.96,-45.25 503.68,-48 506.25,-48.18 508.85,-48.38 511.47,-48.6"/>
<polygon fill="red" stroke="red" stroke-width="2" points="511.37,-52.11 521.65,-49.53 512.01,-45.14 511.37,-52.11"/>
<text text-anchor="middle" x="455.18" y="-51.8" font-family="Times,serif" font-size="14.00">backpressure</text>
</g>
<!-- Sink2&#45;&gt;invisible_sink2 -->
<!-- Buffer2&#45;&gt;Shard1 -->
<g id="edge14" class="edge">
<title>Buffer2&#45;&gt;Shard1</title>
<path fill="none" stroke="red" stroke-width="2" d="M569.88,-83.01C549.1,-89.12 525.44,-95.73 503.68,-101 460.99,-111.33 449.12,-108.66 406.68,-120 399.7,-121.87 392.37,-124.1 385.26,-126.42"/>
<polygon fill="red" stroke="red" stroke-width="2" points="384.13,-123.1 375.75,-129.6 386.35,-129.74 384.13,-123.1"/>
<text text-anchor="middle" x="455.18" y="-123.8" font-family="Times,serif" font-size="14.00">backpressure</text>
</g>
<!-- Buffer2&#45;&gt;Sink2 -->
</g>
</svg>
