<?xml version="1.0" encoding="UTF-8" standalone="no"?>
<!DOCTYPE svg PUBLIC "-//W3C//DTD SVG 1.1//EN"
 "http://www.w3.org/Graphics/SVG/1.1/DTD/svg11.dtd">
<!-- Generated by graphviz version 2.43.0 (0)
 -->
<!-- Title: G Pages: 1 -->
<svg width="823pt" height="432pt"
 viewBox="0.00 0.00 823.08 432.00" xmlns="http://www.w3.org/2000/svg" xmlns:xlink="http://www.w3.org/1999/xlink">
<g id="graph0" class="graph" transform="scale(1 1) rotate(0) translate(4 428)">
<title>G</title>
<polygon fill="white" stroke="transparent" points="-4,4 -4,-428 819.08,-428 819.08,4 -4,4"/>
<!-- invisible_sink1 -->
<g id="node1" class="node">
<title>invisible_sink1</title>
<ellipse fill="black" stroke="black" cx="783.88" cy="-346" rx="0" ry="0"/>
</g>
<!-- invisible_sink2 -->
<g id="node2" class="node">
<title>invisible_sink2</title>
<ellipse fill="black" stroke="black" cx="783.88" cy="-108" rx="0" ry="0"/>
</g>
<!-- invisible_sink1&#45;&gt;invisible_sink2 -->
<!-- invisible_sink3 -->
<g id="node3" class="node">
<title>invisible_sink3</title>
<ellipse fill="black" stroke="black" cx="783.88" cy="-72" rx="0" ry="0"/>
</g>
<!-- invisible_sink2&#45;&gt;invisible_sink3 -->
<!-- invisible_sink4 -->
<g id="node4" class="node">
<title>invisible_sink4</title>
<ellipse fill="black" stroke="black" cx="783.88" cy="-36" rx="0" ry="0"/>
</g>
<!-- invisible_sink3&#45;&gt;invisible_sink4 -->
<!-- invisible_sink5 -->
<g id="node5" class="node">
<title>invisible_sink5</title>
<ellipse fill="black" stroke="black" cx="783.88" cy="0" rx="0" ry="0"/>
</g>
<!-- invisible_sink4&#45;&gt;invisible_sink5 -->
<!-- Source1 -->
<g id="node6" class="node">
<title>Source1</title>
<ellipse fill="none" stroke="black" cx="42.9" cy="-396" rx="42.79" ry="18"/>
<text text-anchor="middle" x="42.9" y="-392.3" font-family="Times,serif" font-size="14.00">Source</text>
</g>
<!-- Shard1 -->
<g id="node7" class="node">
<title>Shard1</title>
<ellipse fill="none" stroke="black" cx="320.24" cy="-396" rx="47.39" ry="18"/>
<text text-anchor="middle" x="320.24" y="-392.3" font-family="Times,serif" font-size="14.00">Shard 1</text>
</g>
<!-- Source1&#45;&gt;Shard1 -->
<g id="edge17" class="edge">
<title>Source1&#45;&gt;Shard1</title>
<path fill="none" stroke="green" stroke-width="3" d="M86.01,-396C133.19,-396 209.89,-396 262.36,-396"/>
<polygon fill="green" stroke="green" stroke-width="3" points="262.52,-399.5 272.52,-396 262.52,-392.5 262.52,-399.5"/>
<text text-anchor="middle" x="179.29" y="-399.8" font-family="Times,serif" font-size="14.00">blocked tx to shard 2</text>
</g>
<!-- Source2 -->
<g id="node10" class="node">
<title>Source2</title>
<ellipse fill="none" stroke="black" cx="42.9" cy="-324" rx="42.79" ry="18"/>
<text text-anchor="middle" x="42.9" y="-320.3" font-family="Times,serif" font-size="14.00">Source</text>
</g>
<!-- Source1&#45;&gt;Source2 -->
<!-- Sink1 -->
<g id="node8" class="node">
<title>Sink1</title>
<ellipse fill="none" stroke="black" cx="783.88" cy="-406" rx="31.4" ry="18"/>
<text text-anchor="middle" x="783.88" y="-402.3" font-family="Times,serif" font-size="14.00">Sink</text>
</g>
<!-- Shard1&#45;&gt;Sink1 -->
<g id="edge22" class="edge">
<title>Shard1&#45;&gt;Sink1</title>
<path fill="none" stroke="black" d="M367.62,-397C458.16,-398.97 657.04,-403.27 742.53,-405.13"/>
<polygon fill="black" stroke="black" points="742.54,-408.63 752.61,-405.34 742.69,-401.63 742.54,-408.63"/>
<text text-anchor="middle" x="608.18" y="-407.8" font-family="Times,serif" font-size="14.00">10 Tgas / 1000 Tgas</text>
</g>
<!-- Buffer1 -->
<g id="node9" class="node">
<title>Buffer1</title>
<polygon fill="none" stroke="red" stroke-width="2" points="715.68,-373 500.68,-373 500.68,-337 715.68,-337 715.68,-373"/>
<text text-anchor="middle" x="608.18" y="-351.3" font-family="Times,serif" font-size="14.00">Outgoing Buffer fills to max</text>
</g>
<!-- Shard1&#45;&gt;Buffer1 -->
<g id="edge27" class="edge">
<title>Shard1&#45;&gt;Buffer1</title>
<path fill="none" stroke="green" stroke-width="2" d="M359.23,-385.69C367.88,-383.59 377.06,-381.55 385.68,-380 419.57,-373.91 456.66,-369.03 490.62,-365.26"/>
<polygon fill="green" stroke="green" stroke-width="2" points="491.02,-368.74 500.59,-364.18 490.27,-361.78 491.02,-368.74"/>
<text text-anchor="middle" x="434.18" y="-383.8" font-family="Times,serif" font-size="14.00">backpressure</text>
</g>
<!-- Sink1&#45;&gt;invisible_sink1 -->
<!-- Shard2 -->
<g id="node11" class="node">
<title>Shard2</title>
<ellipse fill="none" stroke="black" cx="320.24" cy="-324" rx="47.39" ry="18"/>
<text text-anchor="middle" x="320.24" y="-320.3" font-family="Times,serif" font-size="14.00">Shard 2</text>
</g>
<!-- Buffer1&#45;&gt;Shard2 -->
<g id="edge28" class="edge">
<title>Buffer1&#45;&gt;Shard2</title>
<path fill="none" stroke="green" stroke-width="2" d="M500.56,-342.96C494.51,-342.29 488.52,-341.64 482.68,-341 447.32,-337.15 407.57,-332.96 376.37,-329.71"/>
<polygon fill="green" stroke="green" stroke-width="2" points="376.44,-326.2 366.13,-328.64 375.72,-333.16 376.44,-326.2"/>
<text text-anchor="middle" x="434.18" y="-344.8" font-family="Times,serif" font-size="14.00">510 Tgas</text>
</g>
<!-- Source2&#45;&gt;Shard2 -->
<g id="edge18" class="edge">
<title>Source2&#45;&gt;Shard2</title>
<path fill="none" stroke="green" stroke-width="3" d="M86.01,-324C133.19,-324 209.89,-324 262.36,-324"/>
<polygon fill="green" stroke="green" stroke-width="3" points="262.52,-327.5 272.52,-324 262.52,-320.5 262.52,-327.5"/>
<text text-anchor="middle" x="179.29" y="-327.8" font-family="Times,serif" font-size="14.00">blocked tx to shard 3</text>
</g>
<!-- Source3 -->
<g id="node13" class="node">
<title>Source3</title>
<ellipse fill="none" stroke="black" cx="42.9" cy="-252" rx="42.79" ry="18"/>
<text text-anchor="middle" x="42.9" y="-248.3" font-family="Times,serif" font-size="14.00">Source</text>
</g>
<!-- Source2&#45;&gt;Source3 -->
<!-- Sink2 -->
<g id="node12" class="node">
<title>Sink2</title>
<ellipse fill="none" stroke="black" cx="783.88" cy="-306" rx="31.4" ry="18"/>
<text text-anchor="middle" x="783.88" y="-302.3" font-family="Times,serif" font-size="14.00">Sink</text>
</g>
<!-- Shard2&#45;&gt;Sink2 -->
<g id="edge23" class="edge">
<title>Shard2&#45;&gt;Sink2</title>
<path fill="none" stroke="black" d="M366.94,-320.74C403.19,-318.26 455.16,-314.96 500.68,-313 586.7,-309.3 687.55,-307.38 742.38,-306.54"/>
<polygon fill="black" stroke="black" points="742.44,-310.04 752.38,-306.39 742.33,-303.04 742.44,-310.04"/>
<text text-anchor="middle" x="608.18" y="-316.8" font-family="Times,serif" font-size="14.00">10 Tgas / 1000 Tgas</text>
</g>
<!-- Shard3 -->
<g id="node14" class="node">
<title>Shard3</title>
<ellipse fill="none" stroke="black" cx="320.24" cy="-252" rx="47.39" ry="18"/>
<text text-anchor="middle" x="320.24" y="-248.3" font-family="Times,serif" font-size="14.00">Shard 3</text>
</g>
<!-- Shard2&#45;&gt;Shard3 -->
<g id="edge29" class="edge">
<title>Shard2&#45;&gt;Shard3</title>
<path fill="none" stroke="green" stroke-width="2" d="M320.24,-305.59C320.24,-297.94 320.24,-288.89 320.24,-280.43"/>
<polygon fill="green" stroke="green" stroke-width="2" points="323.74,-280.17 320.24,-270.17 316.74,-280.17 323.74,-280.17"/>
<text text-anchor="middle" x="309.74" y="-284.3" font-family="Times,serif" font-size="14.00">500 Tgas</text>
</g>
<!-- Sink2&#45;&gt;invisible_sink2 -->
<!-- Source3&#45;&gt;Shard3 -->
<g id="edge19" class="edge">
<title>Source3&#45;&gt;Shard3</title>
<path fill="none" stroke="green" stroke-width="3" d="M86.01,-252C133.19,-252 209.89,-252 262.36,-252"/>
<polygon fill="green" stroke="green" stroke-width="3" points="262.52,-255.5 272.52,-252 262.52,-248.5 262.52,-255.5"/>
<text text-anchor="middle" x="179.29" y="-255.8" font-family="Times,serif" font-size="14.00">blocked tx to shard 3</text>
</g>
<!-- Source4 -->
<g id="node16" class="node">
<title>Source4</title>
<ellipse fill="none" stroke="black" cx="42.9" cy="-180" rx="42.79" ry="18"/>
<text text-anchor="middle" x="42.9" y="-176.3" font-family="Times,serif" font-size="14.00">Source</text>
</g>
<!-- Source3&#45;&gt;Source4 -->
<!-- Sink3 -->
<g id="node15" class="node">
<title>Sink3</title>
<ellipse fill="none" stroke="black" cx="783.88" cy="-252" rx="31.4" ry="18"/>
<text text-anchor="middle" x="783.88" y="-248.3" font-family="Times,serif" font-size="14.00">Sink</text>
</g>
<!-- Shard3&#45;&gt;Sink3 -->
<g id="edge24" class="edge">
<title>Shard3&#45;&gt;Sink3</title>
<path fill="none" stroke="green" stroke-width="3" d="M368.04,-252C458.81,-252 657.32,-252 742.62,-252"/>
<polygon fill="green" stroke="green" stroke-width="3" points="742.68,-255.5 752.68,-252 742.68,-248.5 742.68,-255.5"/>
<text text-anchor="middle" x="608.18" y="-255.8" font-family="Times,serif" font-size="14.00">1000 Tgas / 1000 Tgas</text>
</g>
<!-- Shard4 -->
<g id="node17" class="node">
<title>Shard4</title>
<ellipse fill="none" stroke="black" cx="320.24" cy="-180" rx="47.39" ry="18"/>
<text text-anchor="middle" x="320.24" y="-176.3" font-family="Times,serif" font-size="14.00">Shard 4</text>
</g>
<!-- Shard3&#45;&gt;Shard4 -->
<!-- Sink3&#45;&gt;invisible_sink3 -->
<!-- Source4&#45;&gt;Shard4 -->
<g id="edge20" class="edge">
<title>Source4&#45;&gt;Shard4</title>
<path fill="none" stroke="green" stroke-width="3" d="M86.01,-180C133.19,-180 209.89,-180 262.36,-180"/>
<polygon fill="green" stroke="green" stroke-width="3" points="262.52,-183.5 272.52,-180 262.52,-176.5 262.52,-183.5"/>
<text text-anchor="middle" x="179.29" y="-183.8" font-family="Times,serif" font-size="14.00">blocked tx to shard 3</text>
</g>
<!-- Source5 -->
<g id="node19" class="node">
<title>Source5</title>
<ellipse fill="none" stroke="black" cx="42.9" cy="-108" rx="42.79" ry="18"/>
<text text-anchor="middle" x="42.9" y="-104.3" font-family="Times,serif" font-size="14.00">Source</text>
</g>
<!-- Source4&#45;&gt;Source5 -->
<!-- Shard4&#45;&gt;Shard3 -->
<g id="edge30" class="edge">
<title>Shard4&#45;&gt;Shard3</title>
<path fill="none" stroke="green" stroke-width="2" d="M320.24,-198.17C320.24,-205.87 320.24,-215.03 320.24,-223.58"/>
<polygon fill="green" stroke="green" stroke-width="2" points="316.74,-223.59 320.24,-233.59 323.74,-223.59 316.74,-223.59"/>
<text text-anchor="middle" x="309.74" y="-212.3" font-family="Times,serif" font-size="14.00">500 Tgas</text>
</g>
<!-- Sink4 -->
<g id="node18" class="node">
<title>Sink4</title>
<ellipse fill="none" stroke="black" cx="783.88" cy="-198" rx="31.4" ry="18"/>
<text text-anchor="middle" x="783.88" y="-194.3" font-family="Times,serif" font-size="14.00">Sink</text>
</g>
<!-- Shard4&#45;&gt;Sink4 -->
<g id="edge25" class="edge">
<title>Shard4&#45;&gt;Sink4</title>
<path fill="none" stroke="black" d="M367.35,-183.01C373.51,-183.37 379.75,-183.71 385.68,-184 515.81,-190.33 670.05,-194.94 742.05,-196.92"/>
<polygon fill="black" stroke="black" points="742.38,-200.43 752.47,-197.21 742.57,-193.43 742.38,-200.43"/>
<text text-anchor="middle" x="608.18" y="-200.8" font-family="Times,serif" font-size="14.00">10 Tgas / 1000 Tgas</text>
</g>
<!-- Shard5 -->
<g id="node20" class="node">
<title>Shard5</title>
<ellipse fill="none" stroke="black" cx="320.24" cy="-108" rx="47.39" ry="18"/>
<text text-anchor="middle" x="320.24" y="-104.3" font-family="Times,serif" font-size="14.00">Shard 5</text>
</g>
<!-- Shard4&#45;&gt;Shard5 -->
<!-- Sink4&#45;&gt;invisible_sink4 -->
<!-- Source5&#45;&gt;Shard5 -->
<g id="edge21" class="edge">
<title>Source5&#45;&gt;Shard5</title>
<path fill="none" stroke="green" stroke-width="3" d="M86.01,-108C133.19,-108 209.89,-108 262.36,-108"/>
<polygon fill="green" stroke="green" stroke-width="3" points="262.52,-111.5 272.52,-108 262.52,-104.5 262.52,-111.5"/>
<text text-anchor="middle" x="179.29" y="-111.8" font-family="Times,serif" font-size="14.00">blocked tx to shard 4</text>
</g>
<!-- Sink5 -->
<g id="node21" class="node">
<title>Sink5</title>
<ellipse fill="none" stroke="black" cx="783.88" cy="-144" rx="31.4" ry="18"/>
<text text-anchor="middle" x="783.88" y="-140.3" font-family="Times,serif" font-size="14.00">Sink</text>
</g>
<!-- Shard5&#45;&gt;Sink5 -->
<g id="edge26" class="edge">
<title>Shard5&#45;&gt;Sink5</title>
<path fill="none" stroke="black" d="M362.58,-99.65C435.56,-86.59 591.26,-66.31 715.68,-102 730.58,-106.27 745.38,-114.92 757.28,-123.26"/>
<polygon fill="black" stroke="black" points="755.26,-126.12 765.4,-129.22 759.41,-120.48 755.26,-126.12"/>
<text text-anchor="middle" x="608.18" y="-105.8" font-family="Times,serif" font-size="14.00">10 Tgas / 1000 Tgas</text>
</g>
<!-- Buffer5 -->
<g id="node22" class="node">
<title>Buffer5</title>
<polygon fill="none" stroke="red" stroke-width="2" points="715.68,-162 500.68,-162 500.68,-126 715.68,-126 715.68,-162"/>
<text text-anchor="middle" x="608.18" y="-140.3" font-family="Times,serif" font-size="14.00">Outgoing Buffer fills to max</text>
</g>
<!-- Shard5&#45;&gt;Buffer5 -->
<g id="edge31" class="edge">
<title>Shard5&#45;&gt;Buffer5</title>
<path fill="none" stroke="green" stroke-width="2" d="M365.6,-113.59C399.07,-117.8 446.6,-123.78 490.66,-129.33"/>
<polygon fill="green" stroke="green" stroke-width="2" points="490.23,-132.8 500.59,-130.58 491.1,-125.86 490.23,-132.8"/>
<text text-anchor="middle" x="434.18" y="-132.8" font-family="Times,serif" font-size="14.00">backpressure</text>
</g>
<!-- Sink5&#45;&gt;invisible_sink5 -->
<!-- Buffer5&#45;&gt;Shard4 -->
<g id="edge32" class="edge">
<title>Buffer5&#45;&gt;Shard4</title>
<path fill="none" stroke="green" stroke-width="2" d="M500.56,-154.8C464.07,-158.82 423.04,-163.71 385.68,-169 381.75,-169.56 377.69,-170.17 373.61,-170.81"/>
<polygon fill="green" stroke="green" stroke-width="2" points="372.79,-167.39 363.48,-172.44 373.91,-174.3 372.79,-167.39"/>
<text text-anchor="middle" x="434.18" y="-172.8" font-family="Times,serif" font-size="14.00">510 Tgas</text>
</g>
<!-- Buffer5&#45;&gt;Sink5 -->
</g>
</svg>
