<?xml version="1.0" encoding="UTF-8" standalone="no"?>
<!DOCTYPE svg PUBLIC "-//W3C//DTD SVG 1.1//EN"
 "http://www.w3.org/Graphics/SVG/1.1/DTD/svg11.dtd">
<!-- Generated by graphviz version 2.43.0 (0)
 -->
<!-- Title: G Pages: 1 -->
<svg width="561pt" height="247pt"
 viewBox="0.00 0.00 561.08 247.10" xmlns="http://www.w3.org/2000/svg" xmlns:xlink="http://www.w3.org/1999/xlink">
<g id="graph0" class="graph" transform="scale(1 1) rotate(0) translate(4 243.1)">
<title>G</title>
<polygon fill="white" stroke="transparent" points="-4,4 -4,-243.1 557.08,-243.1 557.08,4 -4,4"/>
<!-- invisible_sink1 -->
<g id="node1" class="node">
<title>invisible_sink1</title>
<ellipse fill="black" stroke="black" cx="521.88" cy="-167.1" rx="0" ry="0"/>
</g>
<!-- invisible_sink2 -->
<g id="node2" class="node">
<title>invisible_sink2</title>
<ellipse fill="black" stroke="black" cx="521.88" cy="-41.1" rx="0" ry="0"/>
</g>
<!-- invisible_sink1&#45;&gt;invisible_sink2 -->
<!-- invisible_sink3 -->
<g id="node3" class="node">
<title>invisible_sink3</title>
<ellipse fill="black" stroke="black" cx="521.88" cy="-5.1" rx="0" ry="0"/>
</g>
<!-- invisible_sink2&#45;&gt;invisible_sink3 -->
<!-- Source1 -->
<g id="node4" class="node">
<title>Source1</title>
<ellipse fill="none" stroke="black" cx="42.9" cy="-221.1" rx="42.79" ry="18"/>
<text text-anchor="middle" x="42.9" y="-217.4" font-family="Times,serif" font-size="14.00">Source</text>
</g>
<!-- Shard1 -->
<g id="node5" class="node">
<title>Shard1</title>
<ellipse fill="none" stroke="black" cx="244.24" cy="-221.1" rx="47.39" ry="18"/>
<text text-anchor="middle" x="244.24" y="-217.4" font-family="Times,serif" font-size="14.00">Shard 1</text>
</g>
<!-- Source1&#45;&gt;Shard1 -->
<g id="edge6" class="edge">
<title>Source1&#45;&gt;Shard1</title>
<path fill="none" stroke="black" d="M86.17,-221.1C115.36,-221.1 154.5,-221.1 186.41,-221.1"/>
<polygon fill="black" stroke="black" points="186.49,-224.6 196.49,-221.1 186.49,-217.6 186.49,-224.6"/>
<text text-anchor="middle" x="141.29" y="-224.9" font-family="Times,serif" font-size="14.00">1000 Tgas</text>
</g>
<!-- Sink1 -->
<g id="node6" class="node">
<title>Sink1</title>
<ellipse fill="none" stroke="black" cx="521.88" cy="-221.1" rx="31.4" ry="18"/>
<text text-anchor="middle" x="521.88" y="-217.4" font-family="Times,serif" font-size="14.00">Sink</text>
</g>
<!-- Shard1&#45;&gt;Sink1 -->
<g id="edge7" class="edge">
<title>Shard1&#45;&gt;Sink1</title>
<path fill="none" stroke="black" d="M291.69,-221.1C344.54,-221.1 430.03,-221.1 480.31,-221.1"/>
<polygon fill="black" stroke="black" points="480.48,-224.6 490.48,-221.1 480.48,-217.6 480.48,-224.6"/>
<text text-anchor="middle" x="391.18" y="-224.9" font-family="Times,serif" font-size="14.00">1 Tgas / 1000 Tgas</text>
</g>
<!-- Shard3 -->
<g id="node11" class="node">
<title>Shard3</title>
<ellipse fill="none" stroke="black" cx="244.24" cy="-62.1" rx="47.39" ry="18"/>
<text text-anchor="middle" x="244.24" y="-58.4" font-family="Times,serif" font-size="14.00">Shard 3</text>
</g>
<!-- Shard1&#45;&gt;Shard3 -->
<g id="edge12" class="edge">
<title>Shard1&#45;&gt;Shard3</title>
<path fill="none" stroke="black" d="M209.89,-208.62C165.84,-190.61 98.17,-154.9 125.29,-113.6 139.84,-91.45 166.18,-78.78 190.38,-71.55"/>
<polygon fill="black" stroke="black" points="191.5,-74.88 200.22,-68.87 189.65,-68.12 191.5,-74.88"/>
<text text-anchor="middle" x="141.29" y="-117.4" font-family="Times,serif" font-size="14.00">999 Tgas</text>
</g>
<!-- Sink1&#45;&gt;invisible_sink1 -->
<!-- Source2 -->
<g id="node7" class="node">
<title>Source2</title>
<ellipse fill="none" stroke="black" cx="42.9" cy="-167.1" rx="42.79" ry="18"/>
<text text-anchor="middle" x="42.9" y="-163.4" font-family="Times,serif" font-size="14.00">Source</text>
</g>
<!-- Shard2 -->
<g id="node8" class="node">
<title>Shard2</title>
<ellipse fill="none" stroke="black" cx="244.24" cy="-167.1" rx="47.39" ry="18"/>
<text text-anchor="middle" x="244.24" y="-163.4" font-family="Times,serif" font-size="14.00">Shard 2</text>
</g>
<!-- Source2&#45;&gt;Shard2 -->
<g id="edge8" class="edge">
<title>Source2&#45;&gt;Shard2</title>
<path fill="none" stroke="black" d="M86.17,-167.1C115.36,-167.1 154.5,-167.1 186.41,-167.1"/>
<polygon fill="black" stroke="black" points="186.49,-170.6 196.49,-167.1 186.49,-163.6 186.49,-170.6"/>
<text text-anchor="middle" x="141.29" y="-170.9" font-family="Times,serif" font-size="14.00">1000 Tgas</text>
</g>
<!-- Sink2 -->
<g id="node9" class="node">
<title>Sink2</title>
<ellipse fill="none" stroke="black" cx="521.88" cy="-131.1" rx="31.4" ry="18"/>
<text text-anchor="middle" x="521.88" y="-127.4" font-family="Times,serif" font-size="14.00">Sink</text>
</g>
<!-- Shard2&#45;&gt;Sink2 -->
<g id="edge9" class="edge">
<title>Shard2&#45;&gt;Sink2</title>
<path fill="none" stroke="black" d="M289.22,-161.36C342.12,-154.45 430.14,-142.95 481.09,-136.3"/>
<polygon fill="black" stroke="black" points="481.61,-139.76 491.07,-134.99 480.7,-132.82 481.61,-139.76"/>
<text text-anchor="middle" x="391.18" y="-162.9" font-family="Times,serif" font-size="14.00">1 Tgas / 1000 Tgas</text>
</g>
<!-- Shard2&#45;&gt;Shard3 -->
<g id="edge13" class="edge">
<title>Shard2&#45;&gt;Shard3</title>
<path fill="none" stroke="black" d="M244.24,-149.02C244.24,-132.9 244.24,-109.04 244.24,-90.4"/>
<polygon fill="black" stroke="black" points="247.74,-90.39 244.24,-80.39 240.74,-90.39 247.74,-90.39"/>
<text text-anchor="middle" x="233.74" y="-110.9" font-family="Times,serif" font-size="14.00">999 Tgas</text>
</g>
<!-- Sink2&#45;&gt;invisible_sink2 -->
<!-- Source3 -->
<g id="node10" class="node">
<title>Source3</title>
<ellipse fill="none" stroke="black" cx="42.9" cy="-62.1" rx="42.79" ry="18"/>
<text text-anchor="middle" x="42.9" y="-58.4" font-family="Times,serif" font-size="14.00">Source</text>
</g>
<!-- Source3&#45;&gt;Shard3 -->
<g id="edge10" class="edge">
<title>Source3&#45;&gt;Shard3</title>
<path fill="none" stroke="black" d="M86.17,-62.1C115.36,-62.1 154.5,-62.1 186.41,-62.1"/>
<polygon fill="black" stroke="black" points="186.49,-65.6 196.49,-62.1 186.49,-58.6 186.49,-65.6"/>
<text text-anchor="middle" x="141.29" y="-65.9" font-family="Times,serif" font-size="14.00">1000 Tgas</text>
</g>
<!-- Shard3&#45;&gt;Shard3 -->
<g id="edge14" class="edge">
<title>Shard3&#45;&gt;Shard3</title>
<path fill="none" stroke="black" d="M226.11,-89.45C228.36,-94.53 234.4,-98.1 244.24,-98.1 259.98,-98.1 266,-88.96 262.31,-79.14"/>
<polygon fill="black" stroke="black" points="229.61,-89.16 226.16,-79.14 222.61,-89.12 229.61,-89.16"/>
<text text-anchor="middle" x="244.24" y="-101.9" font-family="Times,serif" font-size="14.00">999 Tgas</text>
</g>
<!-- Sink3 -->
<g id="node12" class="node">
<title>Sink3</title>
<ellipse fill="none" stroke="black" cx="521.88" cy="-77.1" rx="31.4" ry="18"/>
<text text-anchor="middle" x="521.88" y="-73.4" font-family="Times,serif" font-size="14.00">Sink</text>
</g>
<!-- Shard3&#45;&gt;Sink3 -->
<g id="edge11" class="edge">
<title>Shard3&#45;&gt;Sink3</title>
<path fill="none" stroke="red" stroke-width="3" d="M291.37,-64.61C344.31,-67.49 430.29,-72.17 480.62,-74.91"/>
<polygon fill="red" stroke="red" stroke-width="3" points="480.62,-78.41 490.8,-75.46 481,-71.43 480.62,-78.41"/>
<text text-anchor="middle" x="391.18" y="-78.9" font-family="Times,serif" font-size="14.00">2998 Tgas / 1000 Tgas</text>
</g>
<!-- Sink3&#45;&gt;invisible_sink3 -->
</g>
</svg>
