<?xml version="1.0" encoding="UTF-8" standalone="no"?>
<!DOCTYPE svg PUBLIC "-//W3C//DTD SVG 1.1//EN"
 "http://www.w3.org/Graphics/SVG/1.1/DTD/svg11.dtd">
<!-- Generated by graphviz version 2.43.0 (0)
 -->
<!-- Title: G Pages: 1 -->
<svg width="637pt" height="442pt"
 viewBox="0.00 0.00 637.08 441.52" xmlns="http://www.w3.org/2000/svg" xmlns:xlink="http://www.w3.org/1999/xlink">
<g id="graph0" class="graph" transform="scale(1 1) rotate(0) translate(4 437.52)">
<title>G</title>
<polygon fill="white" stroke="transparent" points="-4,4 -4,-437.52 633.08,-437.52 633.08,4 -4,4"/>
<!-- invisible_sink1 -->
<g id="node1" class="node">
<title>invisible_sink1</title>
<ellipse fill="black" stroke="black" cx="597.88" cy="-361.52" rx="0" ry="0"/>
</g>
<!-- invisible_sink2 -->
<g id="node2" class="node">
<title>invisible_sink2</title>
<ellipse fill="black" stroke="black" cx="597.88" cy="-271.52" rx="0" ry="0"/>
</g>
<!-- invisible_sink1&#45;&gt;invisible_sink2 -->
<!-- invisible_sink3 -->
<g id="node3" class="node">
<title>invisible_sink3</title>
<ellipse fill="black" stroke="black" cx="597.88" cy="-181.52" rx="0" ry="0"/>
</g>
<!-- invisible_sink2&#45;&gt;invisible_sink3 -->
<!-- invisible_sink4 -->
<g id="node4" class="node">
<title>invisible_sink4</title>
<ellipse fill="black" stroke="black" cx="597.88" cy="-91.52" rx="0" ry="0"/>
</g>
<!-- invisible_sink3&#45;&gt;invisible_sink4 -->
<!-- invisible_sink5 -->
<g id="node5" class="node">
<title>invisible_sink5</title>
<ellipse fill="black" stroke="black" cx="597.88" cy="-1.52" rx="0" ry="0"/>
</g>
<!-- invisible_sink4&#45;&gt;invisible_sink5 -->
<!-- Source1 -->
<g id="node6" class="node">
<title>Source1</title>
<ellipse fill="none" stroke="black" cx="42.9" cy="-388.52" rx="42.79" ry="18"/>
<text text-anchor="middle" x="42.9" y="-384.82" font-family="Times,serif" font-size="14.00">Source</text>
</g>
<!-- Shard1 -->
<g id="node7" class="node">
<title>Shard1</title>
<ellipse fill="none" stroke="black" cx="320.24" cy="-388.52" rx="47.39" ry="18"/>
<text text-anchor="middle" x="320.24" y="-384.82" font-family="Times,serif" font-size="14.00">Shard 1</text>
</g>
<!-- Source1&#45;&gt;Shard1 -->
<g id="edge16" class="edge">
<title>Source1&#45;&gt;Shard1</title>
<path fill="none" stroke="red" stroke-width="3" d="M86.01,-388.52C133.19,-388.52 209.89,-388.52 262.36,-388.52"/>
<polygon fill="red" stroke="red" stroke-width="3" points="262.52,-392.02 272.52,-388.52 262.52,-385.02 262.52,-392.02"/>
<text text-anchor="middle" x="179.29" y="-392.32" font-family="Times,serif" font-size="14.00">1000 Tgas</text>
</g>
<!-- Source2 -->
<g id="node9" class="node">
<title>Source2</title>
<ellipse fill="none" stroke="black" cx="42.9" cy="-316.52" rx="42.79" ry="18"/>
<text text-anchor="middle" x="42.9" y="-312.82" font-family="Times,serif" font-size="14.00">Source</text>
</g>
<!-- Source1&#45;&gt;Source2 -->
<!-- Sink1 -->
<g id="node8" class="node">
<title>Sink1</title>
<ellipse fill="none" stroke="black" cx="597.88" cy="-415.52" rx="31.4" ry="18"/>
<text text-anchor="middle" x="597.88" y="-411.82" font-family="Times,serif" font-size="14.00">Sink</text>
</g>
<!-- Shard1&#45;&gt;Sink1 -->
<g id="edge21" class="edge">
<title>Shard1&#45;&gt;Sink1</title>
<path fill="none" stroke="black" d="M366.45,-392.95C419.35,-398.13 506.13,-406.63 556.74,-411.59"/>
<polygon fill="black" stroke="black" points="556.68,-415.1 566.97,-412.59 557.36,-408.13 556.68,-415.1"/>
<text text-anchor="middle" x="467.18" y="-413.32" font-family="Times,serif" font-size="14.00">10 Tgas / 1000 Tgas</text>
</g>
<!-- Shard2 -->
<g id="node10" class="node">
<title>Shard2</title>
<ellipse fill="none" stroke="black" cx="320.24" cy="-316.52" rx="47.39" ry="18"/>
<text text-anchor="middle" x="320.24" y="-312.82" font-family="Times,serif" font-size="14.00">Shard 2</text>
</g>
<!-- Shard1&#45;&gt;Shard2 -->
<g id="edge26" class="edge">
<title>Shard1&#45;&gt;Shard2</title>
<path fill="none" stroke="red" stroke-width="2" d="M320.24,-370.11C320.24,-362.46 320.24,-353.41 320.24,-344.95"/>
<polygon fill="red" stroke="red" stroke-width="2" points="323.74,-344.69 320.24,-334.69 316.74,-344.69 323.74,-344.69"/>
<text text-anchor="middle" x="309.74" y="-348.82" font-family="Times,serif" font-size="14.00">990 Tgas</text>
</g>
<!-- Sink1&#45;&gt;invisible_sink1 -->
<!-- Source2&#45;&gt;Shard2 -->
<g id="edge17" class="edge">
<title>Source2&#45;&gt;Shard2</title>
<path fill="none" stroke="green" stroke-width="3" d="M86.01,-316.52C133.19,-316.52 209.89,-316.52 262.36,-316.52"/>
<polygon fill="green" stroke="green" stroke-width="3" points="262.52,-320.02 272.52,-316.52 262.52,-313.02 262.52,-320.02"/>
<text text-anchor="middle" x="179.29" y="-320.32" font-family="Times,serif" font-size="14.00">blocked tx to shard 3</text>
</g>
<!-- Source3 -->
<g id="node12" class="node">
<title>Source3</title>
<ellipse fill="none" stroke="black" cx="42.9" cy="-235.52" rx="42.79" ry="18"/>
<text text-anchor="middle" x="42.9" y="-231.82" font-family="Times,serif" font-size="14.00">Source</text>
</g>
<!-- Source2&#45;&gt;Source3 -->
<!-- Sink2 -->
<g id="node11" class="node">
<title>Sink2</title>
<ellipse fill="none" stroke="black" cx="597.88" cy="-325.52" rx="31.4" ry="18"/>
<text text-anchor="middle" x="597.88" y="-321.82" font-family="Times,serif" font-size="14.00">Sink</text>
</g>
<!-- Shard2&#45;&gt;Sink2 -->
<g id="edge22" class="edge">
<title>Shard2&#45;&gt;Sink2</title>
<path fill="none" stroke="black" d="M367.69,-318.04C420.54,-319.76 506.03,-322.55 556.31,-324.2"/>
<polygon fill="black" stroke="black" points="556.37,-327.7 566.48,-324.53 556.6,-320.7 556.37,-327.7"/>
<text text-anchor="middle" x="467.18" y="-328.32" font-family="Times,serif" font-size="14.00">10 Tgas / 1000 Tgas</text>
</g>
<!-- Shard3 -->
<g id="node13" class="node">
<title>Shard3</title>
<ellipse fill="none" stroke="black" cx="320.24" cy="-235.52" rx="47.39" ry="18"/>
<text text-anchor="middle" x="320.24" y="-231.82" font-family="Times,serif" font-size="14.00">Shard 3</text>
</g>
<!-- Shard2&#45;&gt;Shard3 -->
<g id="edge27" class="edge">
<title>Shard2&#45;&gt;Shard3</title>
<path fill="none" stroke="red" stroke-width="2" d="M320.24,-298.49C320.24,-288.33 320.24,-275.42 320.24,-263.93"/>
<polygon fill="red" stroke="red" stroke-width="2" points="323.74,-263.9 320.24,-253.9 316.74,-263.9 323.74,-263.9"/>
<text text-anchor="middle" x="309.74" y="-272.32" font-family="Times,serif" font-size="14.00">980 Tgas</text>
</g>
<!-- Sink2&#45;&gt;invisible_sink2 -->
<!-- Source3&#45;&gt;Shard3 -->
<g id="edge18" class="edge">
<title>Source3&#45;&gt;Shard3</title>
<path fill="none" stroke="green" stroke-width="3" d="M86.01,-235.52C133.19,-235.52 209.89,-235.52 262.36,-235.52"/>
<polygon fill="green" stroke="green" stroke-width="3" points="262.52,-239.02 272.52,-235.52 262.52,-232.02 262.52,-239.02"/>
<text text-anchor="middle" x="179.29" y="-239.32" font-family="Times,serif" font-size="14.00">blocked tx to shard 3</text>
</g>
<!-- Source4 -->
<g id="node15" class="node">
<title>Source4</title>
<ellipse fill="none" stroke="black" cx="42.9" cy="-163.52" rx="42.79" ry="18"/>
<text text-anchor="middle" x="42.9" y="-159.82" font-family="Times,serif" font-size="14.00">Source</text>
</g>
<!-- Source3&#45;&gt;Source4 -->
<!-- Sink3 -->
<g id="node14" class="node">
<title>Sink3</title>
<ellipse fill="none" stroke="black" cx="597.88" cy="-235.52" rx="31.4" ry="18"/>
<text text-anchor="middle" x="597.88" y="-231.82" font-family="Times,serif" font-size="14.00">Sink</text>
</g>
<!-- Shard3&#45;&gt;Sink3 -->
<g id="edge23" class="edge">
<title>Shard3&#45;&gt;Sink3</title>
<path fill="none" stroke="red" stroke-width="3" d="M367.69,-235.52C420.54,-235.52 506.03,-235.52 556.31,-235.52"/>
<polygon fill="red" stroke="red" stroke-width="3" points="556.48,-239.02 566.48,-235.52 556.48,-232.02 556.48,-239.02"/>
<text text-anchor="middle" x="467.18" y="-239.32" font-family="Times,serif" font-size="14.00">1960 Tgas / 1000 Tgas</text>
</g>
<!-- Shard4 -->
<g id="node16" class="node">
<title>Shard4</title>
<ellipse fill="none" stroke="black" cx="320.24" cy="-163.52" rx="47.39" ry="18"/>
<text text-anchor="middle" x="320.24" y="-159.82" font-family="Times,serif" font-size="14.00">Shard 4</text>
</g>
<!-- Shard3&#45;&gt;Shard4 -->
<!-- Sink3&#45;&gt;invisible_sink3 -->
<!-- Source4&#45;&gt;Shard4 -->
<g id="edge19" class="edge">
<title>Source4&#45;&gt;Shard4</title>
<path fill="none" stroke="green" stroke-width="3" d="M86.01,-163.52C133.19,-163.52 209.89,-163.52 262.36,-163.52"/>
<polygon fill="green" stroke="green" stroke-width="3" points="262.52,-167.02 272.52,-163.52 262.52,-160.02 262.52,-167.02"/>
<text text-anchor="middle" x="179.29" y="-167.32" font-family="Times,serif" font-size="14.00">blocked tx to shard 3</text>
</g>
<!-- Source5 -->
<g id="node18" class="node">
<title>Source5</title>
<ellipse fill="none" stroke="black" cx="42.9" cy="-91.52" rx="42.79" ry="18"/>
<text text-anchor="middle" x="42.9" y="-87.82" font-family="Times,serif" font-size="14.00">Source</text>
</g>
<!-- Source4&#45;&gt;Source5 -->
<!-- Shard4&#45;&gt;Shard3 -->
<g id="edge28" class="edge">
<title>Shard4&#45;&gt;Shard3</title>
<path fill="none" stroke="red" stroke-width="2" d="M320.24,-181.69C320.24,-189.39 320.24,-198.55 320.24,-207.1"/>
<polygon fill="red" stroke="red" stroke-width="2" points="316.74,-207.11 320.24,-217.11 323.74,-207.11 316.74,-207.11"/>
<text text-anchor="middle" x="309.74" y="-195.82" font-family="Times,serif" font-size="14.00">980 Tgas</text>
</g>
<!-- Sink4 -->
<g id="node17" class="node">
<title>Sink4</title>
<ellipse fill="none" stroke="black" cx="597.88" cy="-145.52" rx="31.4" ry="18"/>
<text text-anchor="middle" x="597.88" y="-141.82" font-family="Times,serif" font-size="14.00">Sink</text>
</g>
<!-- Shard4&#45;&gt;Sink4 -->
<g id="edge24" class="edge">
<title>Shard4&#45;&gt;Sink4</title>
<path fill="none" stroke="black" d="M367.06,-160.53C419.95,-157.07 506.08,-151.45 556.53,-148.16"/>
<polygon fill="black" stroke="black" points="556.97,-151.63 566.73,-147.49 556.52,-144.65 556.97,-151.63"/>
<text text-anchor="middle" x="467.18" y="-163.32" font-family="Times,serif" font-size="14.00">10 Tgas / 1000 Tgas</text>
</g>
<!-- Shard5 -->
<g id="node19" class="node">
<title>Shard5</title>
<ellipse fill="none" stroke="black" cx="320.24" cy="-91.52" rx="47.39" ry="18"/>
<text text-anchor="middle" x="320.24" y="-87.82" font-family="Times,serif" font-size="14.00">Shard 5</text>
</g>
<!-- Shard4&#45;&gt;Shard5 -->
<!-- Sink4&#45;&gt;invisible_sink4 -->
<!-- Source5&#45;&gt;Shard5 -->
<g id="edge20" class="edge">
<title>Source5&#45;&gt;Shard5</title>
<path fill="none" stroke="red" stroke-width="3" d="M86.01,-91.52C133.19,-91.52 209.89,-91.52 262.36,-91.52"/>
<polygon fill="red" stroke="red" stroke-width="3" points="262.52,-95.02 272.52,-91.52 262.52,-88.02 262.52,-95.02"/>
<text text-anchor="middle" x="179.29" y="-95.32" font-family="Times,serif" font-size="14.00">1000 Tgas</text>
</g>
<!-- Shard5&#45;&gt;Shard4 -->
<g id="edge29" class="edge">
<title>Shard5&#45;&gt;Shard4</title>
<path fill="none" stroke="red" stroke-width="2" d="M320.24,-109.69C320.24,-117.39 320.24,-126.55 320.24,-135.1"/>
<polygon fill="red" stroke="red" stroke-width="2" points="316.74,-135.11 320.24,-145.11 323.74,-135.11 316.74,-135.11"/>
<text text-anchor="middle" x="309.74" y="-123.82" font-family="Times,serif" font-size="14.00">990 Tgas</text>
</g>
<!-- Sink5 -->
<g id="node20" class="node">
<title>Sink5</title>
<ellipse fill="none" stroke="black" cx="597.88" cy="-55.52" rx="31.4" ry="18"/>
<text text-anchor="middle" x="597.88" y="-51.82" font-family="Times,serif" font-size="14.00">Sink</text>
</g>
<!-- Shard5&#45;&gt;Sink5 -->
<g id="edge25" class="edge">
<title>Shard5&#45;&gt;Sink5</title>
<path fill="none" stroke="black" d="M365.22,-85.78C418.12,-78.87 506.14,-67.37 557.09,-60.72"/>
<polygon fill="black" stroke="black" points="557.61,-64.18 567.07,-59.41 556.7,-57.24 557.61,-64.18"/>
<text text-anchor="middle" x="467.18" y="-87.32" font-family="Times,serif" font-size="14.00">10 Tgas / 1000 Tgas</text>
</g>
<!-- Sink5&#45;&gt;invisible_sink5 -->
</g>
</svg>
