<?xml version="1.0" encoding="UTF-8" standalone="no"?>
<!DOCTYPE svg PUBLIC "-//W3C//DTD SVG 1.1//EN"
 "http://www.w3.org/Graphics/SVG/1.1/DTD/svg11.dtd">
<!-- Generated by graphviz version 2.43.0 (0)
 -->
<!-- Title: G Pages: 1 -->
<svg width="543pt" height="246pt"
 viewBox="0.00 0.00 543.08 246.45" xmlns="http://www.w3.org/2000/svg" xmlns:xlink="http://www.w3.org/1999/xlink">
<g id="graph0" class="graph" transform="scale(1 1) rotate(0) translate(4 242.45)">
<title>G</title>
<polygon fill="white" stroke="transparent" points="-4,4 -4,-242.45 539.08,-242.45 539.08,4 -4,4"/>
<!-- invisible_sink1 -->
<g id="node1" class="node">
<title>invisible_sink1</title>
<ellipse fill="black" stroke="black" cx="503.88" cy="-166.45" rx="0" ry="0"/>
</g>
<!-- invisible_sink2 -->
<g id="node2" class="node">
<title>invisible_sink2</title>
<ellipse fill="black" stroke="black" cx="503.88" cy="-40.45" rx="0" ry="0"/>
</g>
<!-- invisible_sink1&#45;&gt;invisible_sink2 -->
<!-- invisible_sink3 -->
<g id="node3" class="node">
<title>invisible_sink3</title>
<ellipse fill="black" stroke="black" cx="503.88" cy="-4.45" rx="0" ry="0"/>
</g>
<!-- invisible_sink2&#45;&gt;invisible_sink3 -->
<!-- Source1 -->
<g id="node4" class="node">
<title>Source1</title>
<ellipse fill="none" stroke="black" cx="42.9" cy="-204.45" rx="42.79" ry="18"/>
<text text-anchor="middle" x="42.9" y="-200.75" font-family="Times,serif" font-size="14.00">Source</text>
</g>
<!-- Shard1 -->
<g id="node5" class="node">
<title>Shard1</title>
<ellipse fill="none" stroke="black" cx="235.24" cy="-203.45" rx="47.39" ry="18"/>
<text text-anchor="middle" x="235.24" y="-199.75" font-family="Times,serif" font-size="14.00">Shard 1</text>
</g>
<!-- Source1&#45;&gt;Shard1 -->
<g id="edge6" class="edge">
<title>Source1&#45;&gt;Shard1</title>
<path fill="none" stroke="red" stroke-width="3" d="M86.14,-204.23C113.08,-204.09 148.32,-203.91 177.67,-203.75"/>
<polygon fill="red" stroke="red" stroke-width="3" points="177.8,-207.25 187.78,-203.7 177.76,-200.25 177.8,-207.25"/>
<text text-anchor="middle" x="136.79" y="-207.25" font-family="Times,serif" font-size="14.00">333 Tgas</text>
</g>
<!-- Sink1 -->
<g id="node6" class="node">
<title>Sink1</title>
<ellipse fill="none" stroke="black" cx="503.88" cy="-220.45" rx="31.4" ry="18"/>
<text text-anchor="middle" x="503.88" y="-216.75" font-family="Times,serif" font-size="14.00">Sink</text>
</g>
<!-- Shard1&#45;&gt;Sink1 -->
<g id="edge7" class="edge">
<title>Shard1&#45;&gt;Sink1</title>
<path fill="none" stroke="black" d="M282.08,-206.38C332.85,-209.61 413.93,-214.78 462.43,-217.88"/>
<polygon fill="black" stroke="black" points="462.35,-221.38 472.55,-218.52 462.79,-214.39 462.35,-221.38"/>
<text text-anchor="middle" x="377.68" y="-220.25" font-family="Times,serif" font-size="14.00">1 Tgas / 1000 Tgas</text>
</g>
<!-- Shard3 -->
<g id="node11" class="node">
<title>Shard3</title>
<ellipse fill="none" stroke="black" cx="235.24" cy="-76.45" rx="47.39" ry="18"/>
<text text-anchor="middle" x="235.24" y="-72.75" font-family="Times,serif" font-size="14.00">Shard 3</text>
</g>
<!-- Shard1&#45;&gt;Shard3 -->
<g id="edge12" class="edge">
<title>Shard1&#45;&gt;Shard3</title>
<path fill="none" stroke="black" d="M198.41,-192.06C155.47,-176.82 93.5,-147.54 119.79,-111.95 133.35,-93.6 156.25,-84.43 178.09,-79.96"/>
<polygon fill="black" stroke="black" points="178.77,-83.4 188.01,-78.22 177.56,-76.5 178.77,-83.4"/>
<text text-anchor="middle" x="136.79" y="-115.75" font-family="Times,serif" font-size="14.00">332 Tgas</text>
</g>
<!-- Sink1&#45;&gt;invisible_sink1 -->
<!-- Source2 -->
<g id="node7" class="node">
<title>Source2</title>
<ellipse fill="none" stroke="black" cx="42.9" cy="-150.45" rx="42.79" ry="18"/>
<text text-anchor="middle" x="42.9" y="-146.75" font-family="Times,serif" font-size="14.00">Source</text>
</g>
<!-- Shard2 -->
<g id="node8" class="node">
<title>Shard2</title>
<ellipse fill="none" stroke="black" cx="235.24" cy="-148.45" rx="47.39" ry="18"/>
<text text-anchor="middle" x="235.24" y="-144.75" font-family="Times,serif" font-size="14.00">Shard 2</text>
</g>
<!-- Source2&#45;&gt;Shard2 -->
<g id="edge8" class="edge">
<title>Source2&#45;&gt;Shard2</title>
<path fill="none" stroke="red" stroke-width="3" d="M86.14,-150.01C113.08,-149.73 148.32,-149.36 177.67,-149.05"/>
<polygon fill="red" stroke="red" stroke-width="3" points="177.82,-152.55 187.78,-148.94 177.74,-145.55 177.82,-152.55"/>
<text text-anchor="middle" x="136.79" y="-154.25" font-family="Times,serif" font-size="14.00">333 Tgas</text>
</g>
<!-- Sink2 -->
<g id="node9" class="node">
<title>Sink2</title>
<ellipse fill="none" stroke="black" cx="503.88" cy="-130.45" rx="31.4" ry="18"/>
<text text-anchor="middle" x="503.88" y="-126.75" font-family="Times,serif" font-size="14.00">Sink</text>
</g>
<!-- Shard2&#45;&gt;Sink2 -->
<g id="edge9" class="edge">
<title>Shard2&#45;&gt;Sink2</title>
<path fill="none" stroke="black" d="M282.08,-145.36C332.85,-141.93 413.93,-136.46 462.43,-133.19"/>
<polygon fill="black" stroke="black" points="462.81,-136.67 472.55,-132.5 462.34,-129.68 462.81,-136.67"/>
<text text-anchor="middle" x="377.68" y="-148.25" font-family="Times,serif" font-size="14.00">1 Tgas / 1000 Tgas</text>
</g>
<!-- Shard2&#45;&gt;Shard3 -->
<g id="edge13" class="edge">
<title>Shard2&#45;&gt;Shard3</title>
<path fill="none" stroke="black" d="M235.24,-130.04C235.24,-122.4 235.24,-113.35 235.24,-104.88"/>
<polygon fill="black" stroke="black" points="238.74,-104.62 235.24,-94.62 231.74,-104.62 238.74,-104.62"/>
<text text-anchor="middle" x="224.74" y="-108.75" font-family="Times,serif" font-size="14.00">332 Tgas</text>
</g>
<!-- Sink2&#45;&gt;invisible_sink2 -->
<!-- Source3 -->
<g id="node10" class="node">
<title>Source3</title>
<ellipse fill="none" stroke="black" cx="42.9" cy="-76.45" rx="42.79" ry="18"/>
<text text-anchor="middle" x="42.9" y="-72.75" font-family="Times,serif" font-size="14.00">Source</text>
</g>
<!-- Source3&#45;&gt;Shard3 -->
<g id="edge10" class="edge">
<title>Source3&#45;&gt;Shard3</title>
<path fill="none" stroke="red" stroke-width="3" d="M86.14,-76.45C113.08,-76.45 148.32,-76.45 177.67,-76.45"/>
<polygon fill="red" stroke="red" stroke-width="3" points="177.78,-79.95 187.78,-76.45 177.78,-72.95 177.78,-79.95"/>
<text text-anchor="middle" x="136.79" y="-80.25" font-family="Times,serif" font-size="14.00">333 Tgas</text>
</g>
<!-- Sink3 -->
<g id="node12" class="node">
<title>Sink3</title>
<ellipse fill="none" stroke="black" cx="503.88" cy="-76.45" rx="31.4" ry="18"/>
<text text-anchor="middle" x="503.88" y="-72.75" font-family="Times,serif" font-size="14.00">Sink</text>
</g>
<!-- Shard3&#45;&gt;Sink3 -->
<g id="edge11" class="edge">
<title>Shard3&#45;&gt;Sink3</title>
<path fill="none" stroke="green" stroke-width="3" d="M282.99,-76.45C333.78,-76.45 414.1,-76.45 462.32,-76.45"/>
<polygon fill="green" stroke="green" stroke-width="3" points="462.39,-79.95 472.39,-76.45 462.39,-72.95 462.39,-79.95"/>
<text text-anchor="middle" x="377.68" y="-80.25" font-family="Times,serif" font-size="14.00">997 Tgas / 1000 Tgas</text>
</g>
<!-- Sink3&#45;&gt;invisible_sink3 -->
</g>
</svg>
