<svg width="97px" height="97px" viewBox="0 0 97 97" version="1.1" xmlns="http://www.w3.org/2000/svg" xmlns:xlink="http://www.w3.org/1999/xlink">
    <defs>
        <linearGradient x1="8.03545747%" y1="96.638877%" x2="92.2738738%" y2="3.34259955%" id="linearGradient-1">
            <stop stop-color="#4B4F54" offset="21%"></stop>
            <stop stop-color="#4B4F54" stop-opacity="0" offset="42%"></stop>
            <stop stop-color="#4B4F54" stop-opacity="0" offset="59%"></stop>
            <stop stop-color="#4B4F54" offset="81%"></stop>
        </linearGradient>
    </defs>
    <g id="Page-1" stroke="none" stroke-width="1" fill="none" fill-rule="evenodd">
        <g id="create" transform="translate(-1054.000000, -595.000000)" fill-rule="nonzero">
            <g id="Group-5" transform="translate(1054.000000, 595.000000)">
                <path d="M12.094392,97.0000195 C15.2088036,97.0039527 18.1698244,95.6000877 20.2022804,93.1559341 L20.2022804,93.1559341 L93.4074074,5.20030368 C91.4546314,1.96447154 88.0299073,1.95462232e-05 84.3456498,1.95462232e-05 L84.3456498,1.95462232e-05 C81.2486381,-0.0036811685 78.3027381,1.38590639 76.2724476,3.80817433 L2.69444444,91.2428789 C4.57536204,94.7980982 8.18030259,97.0059941 12.094392,97.0000195 Z" id="Path" fill="url(#linearGradient-1)"></path>
                <path d="M11.0831481,97 C12.8513879,97 14.5941045,96.5780666 16.1666667,95.769537 L16.1666667,22.327963 L75.0672222,93.0122222 C77.1773546,95.5384707 80.2990545,96.9989921 83.5906481,97 L85.9168519,97 C92.0358529,96.9950473 96.9950473,92.0358529 97,85.9168519 L97,11.0831481 C96.9950473,4.96414708 92.0358529,0.00495265405 85.9168519,0 L85.9168519,0 C84.1625017,0.00260840866 82.4333785,0.417967183 80.8692593,1.2125 L80.8692593,74.672037 L21.9327778,3.98777778 C19.8226454,1.4615293 16.7009455,0.00100794796 13.4093519,0 L11.0831481,0 C4.96414708,0.00495265405 0.00495265405,4.96414708 0,11.0831481 L0,85.9168519 C0.00495265405,92.0358529 4.96414708,96.9950473 11.0831481,97 Z" id="Path" fill="#4B4F54"></path>
            </g>
        </g>
    </g>
</svg>