<svg width="70" height="14" xmlns="http://www.w3.org/2000/svg" xmlns:xlink="http://www.w3.org/1999/xlink">
    <defs>
        <path id="a" d="M.057.258h27.577V13.39H.057z"/>
    </defs>
    <g fill="none" fill-rule="evenodd">
        <path d="M1.83.609C.818.609 0 1.429 0 2.44a1.83 1.83 0 1 0 3.66 0C3.66 1.43 2.84.61 1.83.61" fill="#39C0BA"/>
        <path d="M32.83 5.609c-1.011 0-1.83.82-1.83 1.832a1.83 1.83 0 1 0 3.66 0c0-1.012-.82-1.832-1.83-1.832M17.27 11.51h-1.503L10.481.657H6.934V13.92h2.431V3.918l4.87 10.002h5.466V.63h-2.43z" fill="#000"/>
        <g transform="translate(25.03 .529)">
            <mask id="b" fill="#fff">
                <use xlink:href="#a"/>
            </mask>
            <path d="M25.203 2.692v3.42h-4.318l1.896-3.42h2.422zm-9.67 8.057H2.637l-.114-8.055h10.705V.26H.058L.24 13.184h16.722l2.571-4.637h5.67v4.844h2.43V.258H21.35l-5.817 10.491z" fill="#000" mask="url(#b)"/>
        </g>
        <path d="M60.004 6.54V3.09h5.794a1.725 1.725 0 0 1 0 3.45h-5.794zm5.794 2.435a4.16 4.16 0 0 0 0-8.32h-8.225V13.92h2.431V8.975h1.014l4.914 4.945h3.429l-4.913-4.945h1.35z" fill="#000"/>
    </g>
</svg>